<?xml version="1.0" standalone="no"?>
<!DOCTYPE svg PUBLIC "-//W3C//DTD SVG 20010904//EN"
 "http://www.w3.org/TR/2001/REC-SVG-20010904/DTD/svg10.dtd">
<svg version="1.0" xmlns="http://www.w3.org/2000/svg"
 width="3788.000000pt" height="3788.000000pt" viewBox="0 0 3788.000000 3788.000000"
 preserveAspectRatio="xMidYMid meet">
<metadata>
Created by potrace 1.14, written by Peter Selinger 2001-2017
</metadata>
<g transform="translate(0.000000,3788.000000) scale(0.100000,-0.100000)"
fill="#000000" stroke="none">
<path d="M15346 37858 c-3 -13 -27 -53 -54 -89 -26 -36 -70 -105 -97 -153 -28
-48 -82 -135 -121 -194 -61 -92 -102 -167 -248 -447 -14 -27 -47 -95 -74 -150
-27 -55 -74 -149 -105 -210 -99 -195 -288 -597 -332 -706 -24 -59 -61 -133
-83 -165 -44 -65 -76 -127 -116 -222 -15 -34 -40 -84 -56 -110 -32 -53 -206
-415 -299 -624 -32 -73 -86 -191 -118 -263 -33 -71 -70 -164 -82 -205 -13 -41
-40 -113 -61 -160 -20 -47 -48 -112 -60 -145 -13 -33 -43 -102 -67 -154 -23
-52 -43 -100 -43 -107 0 -23 -41 -135 -82 -224 -54 -116 -118 -292 -157 -430
-17 -63 -43 -149 -57 -190 -35 -106 -40 -129 -63 -280 -12 -74 -27 -171 -35
-215 -8 -44 -17 -156 -21 -250 -3 -93 -9 -178 -11 -187 -3 -10 -31 -25 -72
-38 -73 -23 -263 -116 -327 -160 -22 -15 -84 -51 -137 -79 -54 -29 -143 -86
-198 -127 -146 -109 -313 -225 -500 -348 -457 -302 -518 -345 -630 -445 -47
-42 -119 -103 -160 -136 -95 -75 -470 -450 -535 -536 -87 -113 -136 -173 -194
-234 -31 -33 -85 -98 -120 -145 -36 -47 -92 -117 -125 -156 -113 -132 -304
-391 -361 -489 -15 -27 -44 -70 -64 -94 -39 -47 -98 -139 -157 -241 -93 -165
-120 -210 -166 -278 -26 -40 -61 -101 -77 -136 -16 -35 -47 -88 -69 -117 -44
-58 -139 -222 -162 -279 -8 -19 -27 -57 -43 -85 -16 -27 -46 -89 -67 -137 -21
-48 -65 -133 -97 -190 -33 -57 -77 -141 -99 -188 -21 -47 -70 -145 -107 -219
-38 -74 -78 -162 -88 -195 -11 -34 -40 -102 -64 -152 -25 -50 -58 -129 -74
-175 -16 -46 -43 -122 -60 -169 -17 -47 -31 -96 -31 -110 0 -14 -13 -66 -29
-117 -28 -85 -46 -172 -69 -333 -9 -61 -22 -98 -58 -162 -8 -14 -18 -59 -23
-99 -7 -50 -20 -92 -44 -138 -34 -66 -49 -115 -159 -518 -11 -43 -27 -97 -34
-120 -7 -23 -18 -72 -24 -109 -6 -37 -13 -71 -16 -75 -8 -14 -32 -176 -43
-299 -7 -63 -16 -144 -21 -180 -6 -36 -13 -99 -15 -140 -3 -41 -12 -140 -21
-220 -11 -95 -15 -189 -11 -275 4 -117 8 -140 39 -225 19 -52 45 -113 57 -135
42 -77 83 -140 109 -168 30 -31 135 -87 164 -87 46 0 198 146 277 264 46 70
95 170 121 251 38 118 75 204 170 401 158 328 213 429 260 474 14 13 38 59 49
92 19 57 87 173 216 365 39 57 87 131 107 164 102 164 316 435 478 604 58 61
114 128 125 150 29 58 387 411 405 400 6 -4 -2 -22 -20 -43 -16 -20 -30 -43
-30 -51 0 -8 -20 -51 -44 -95 -23 -45 -59 -124 -79 -176 -41 -109 -76 -192
-116 -270 -16 -30 -36 -82 -46 -115 -9 -33 -34 -100 -54 -150 -21 -49 -48
-117 -61 -150 -43 -113 -80 -193 -121 -264 -44 -76 -92 -187 -139 -316 -16
-44 -60 -155 -99 -246 -38 -91 -77 -195 -86 -230 -15 -58 -63 -210 -114 -360
-10 -31 -33 -127 -50 -213 -18 -87 -38 -170 -45 -185 -7 -14 -16 -69 -19 -121
-3 -64 -13 -118 -30 -166 -19 -55 -25 -92 -26 -170 0 -54 -7 -126 -15 -159
-25 -100 -42 -844 -27 -1195 15 -355 25 -502 40 -560 6 -25 20 -106 32 -180
12 -74 36 -184 55 -245 18 -60 42 -146 53 -190 22 -86 85 -259 124 -340 13
-27 30 -68 37 -90 7 -22 29 -69 49 -105 21 -36 40 -73 44 -84 4 -10 34 -62 67
-116 32 -53 64 -117 69 -141 12 -51 31 -270 31 -346 0 -29 4 -74 10 -100 5
-26 12 -115 14 -198 4 -141 29 -572 42 -750 3 -44 13 -111 20 -150 8 -38 23
-119 33 -180 10 -60 26 -132 35 -160 29 -94 106 -269 129 -294 36 -41 64 -102
71 -156 9 -69 31 -117 95 -210 76 -110 111 -147 137 -140 15 3 24 -2 32 -20
11 -23 41 -29 69 -12 16 10 43 101 42 144 0 33 -23 157 -44 244 -6 21 -2 30
22 46 15 11 38 23 49 27 16 5 23 17 27 48 3 22 19 66 35 97 39 75 62 151 112
366 23 99 51 210 62 247 11 37 26 93 33 125 15 65 61 245 103 400 15 57 30
103 33 103 16 0 42 -80 50 -151 5 -43 14 -90 20 -106 6 -15 15 -55 20 -88 4
-33 13 -89 19 -125 11 -74 28 -377 37 -680 6 -203 -8 -486 -28 -580 -11 -50
-21 -131 -39 -295 -7 -60 -18 -139 -25 -175 -27 -136 -76 -357 -92 -410 -9
-30 -21 -80 -28 -110 -7 -30 -26 -107 -43 -170 -17 -63 -33 -140 -37 -170 -4
-30 -13 -81 -22 -112 -8 -32 -12 -65 -9 -75 6 -15 10 -14 32 10 26 28 48 29
37 2 -3 -10 1 -15 14 -15 13 0 29 21 55 73 34 67 88 221 88 251 0 7 16 60 36
117 55 163 93 296 104 368 6 36 19 102 30 146 28 117 59 305 70 423 6 57 12
107 15 112 2 4 7 49 10 101 7 131 15 203 25 218 9 16 49 -64 81 -165 13 -38
30 -80 40 -94 9 -14 27 -58 39 -99 12 -41 46 -119 75 -175 62 -119 215 -450
215 -466 0 -6 16 -46 36 -88 20 -42 47 -108 61 -145 13 -38 46 -115 73 -172
27 -57 60 -136 75 -177 42 -117 126 -309 153 -353 14 -22 41 -73 59 -114 19
-41 51 -104 72 -140 21 -36 51 -88 66 -116 15 -27 47 -75 71 -105 398 -505
381 -485 483 -568 43 -34 74 -52 92 -52 44 0 154 54 178 88 27 39 38 146 46
465 4 145 11 256 19 285 42 152 56 208 76 302 12 58 26 119 31 135 13 46 17
79 28 218 6 70 17 157 25 195 7 37 19 96 26 132 6 36 22 102 35 147 13 45 35
164 49 265 14 101 33 221 41 268 8 47 17 108 20 135 8 68 35 155 49 155 6 0 4
5 -4 10 -10 7 -11 10 -2 10 17 0 28 -33 61 -184 31 -144 145 -527 186 -627 15
-35 38 -95 52 -134 14 -38 45 -108 68 -155 23 -47 52 -116 65 -155 12 -38 51
-128 85 -200 35 -71 93 -191 129 -265 80 -167 169 -332 200 -373 28 -38 56
-91 56 -107 0 -6 -18 -1 -40 11 -34 19 -45 21 -69 12 -19 -7 -47 -7 -82 -1
-70 11 -123 4 -240 -33 -124 -40 -207 -99 -242 -173 -14 -28 -46 -71 -71 -96
-25 -24 -46 -50 -46 -57 0 -30 -114 -225 -165 -283 -12 -14 -27 -43 -33 -65
-6 -22 -27 -67 -47 -100 -57 -93 -123 -272 -191 -515 -15 -52 -37 -122 -50
-155 -12 -33 -31 -92 -42 -131 -11 -40 -25 -81 -31 -92 -19 -36 -12 -58 34
-107 42 -46 46 -48 63 -32 10 9 26 17 35 17 26 0 20 -35 -8 -48 -33 -15 -50
-53 -65 -142 -14 -88 -32 -136 -64 -170 -27 -29 -36 -88 -42 -290 -3 -95 0
-134 12 -164 8 -21 13 -41 10 -43 -11 -12 -38 9 -47 36 l-10 29 -172 5 c-95 2
-239 5 -321 6 l-149 1 -46 -48 c-25 -26 -56 -68 -68 -92 -23 -48 -53 -186 -73
-335 -14 -100 -52 -284 -70 -330 -6 -16 -22 -46 -34 -65 -16 -24 -27 -64 -36
-125 -7 -50 -25 -119 -41 -156 -18 -42 -31 -95 -35 -141 -4 -40 -14 -83 -22
-95 -9 -15 -15 -55 -16 -115 -2 -51 -13 -154 -25 -228 -38 -238 -42 -263 -56
-385 -10 -91 -21 -136 -43 -185 -16 -36 -37 -92 -47 -125 -24 -85 -323 -672
-438 -860 -17 -27 -45 -80 -63 -116 -18 -36 -54 -98 -81 -138 -26 -40 -56 -85
-66 -100 -9 -14 -23 -44 -29 -66 -7 -22 -22 -56 -33 -75 -37 -60 -392 -773
-499 -1002 -28 -60 -100 -260 -140 -389 -25 -79 -55 -145 -87 -190 -11 -15
-32 -68 -48 -117 -17 -50 -50 -134 -75 -189 -24 -54 -52 -127 -61 -163 -21
-83 -72 -215 -118 -306 -19 -38 -41 -99 -47 -134 -7 -36 -26 -116 -42 -178
-16 -62 -33 -161 -38 -220 -10 -111 -32 -239 -48 -282 -5 -14 -13 -110 -16
-215 -7 -173 -11 -204 -46 -350 -22 -88 -44 -191 -51 -230 -6 -38 -18 -88 -26
-110 -8 -22 -25 -80 -37 -130 -25 -98 -46 -162 -70 -215 -18 -42 -40 -146 -37
-177 6 -54 -69 -358 -133 -543 -19 -52 -46 -135 -61 -185 -15 -49 -60 -162
-101 -251 -41 -88 -90 -206 -109 -263 -19 -56 -46 -123 -59 -149 -29 -57 -80
-183 -96 -237 -7 -22 -25 -65 -40 -95 -15 -30 -37 -87 -49 -127 -12 -40 -44
-125 -71 -190 -28 -64 -50 -121 -50 -125 0 -4 -18 -49 -41 -100 -41 -94 -89
-221 -136 -358 -14 -41 -45 -124 -69 -185 -23 -60 -50 -139 -58 -175 -8 -36
-21 -81 -30 -101 -36 -86 -95 -328 -101 -414 -3 -50 -8 -109 -11 -133 l-5 -42
1048 2 1048 3 7 45 c13 86 37 255 48 340 6 47 20 115 32 151 16 52 18 71 9 87
-16 31 -14 82 4 82 22 0 24 -18 55 -425 5 -66 15 -157 21 -203 12 -81 12 -82
41 -82 l30 0 -3 333 c-3 331 15 697 43 857 13 81 13 108 -1 195 -48 297 -60
571 -47 1010 3 94 8 251 11 349 3 99 9 196 15 215 5 20 14 88 20 151 34 364
93 645 184 872 18 46 38 106 45 133 7 28 28 85 46 127 52 118 94 242 116 346
20 91 20 97 3 133 -23 52 -15 148 18 214 14 28 44 115 67 195 42 147 116 361
166 480 14 36 51 126 82 200 30 74 69 160 87 190 36 62 78 163 96 230 6 25 38
101 70 170 32 69 80 181 106 249 45 118 47 127 36 168 -23 84 -16 116 58 283
97 217 104 258 63 358 -9 24 26 -2 118 -85 48 -43 124 -109 170 -148 45 -38
138 -122 204 -185 164 -154 207 -190 279 -225 l61 -30 5 -65 c3 -36 14 -81 24
-100 11 -19 25 -75 32 -123 8 -49 25 -125 39 -168 14 -44 25 -88 25 -97 0 -9
17 -78 39 -152 21 -74 49 -175 61 -224 27 -112 58 -174 118 -235 51 -53 95
-71 172 -71 44 0 47 2 107 73 120 141 169 200 215 264 26 36 73 93 105 127 63
66 140 155 174 199 11 15 40 37 62 48 56 28 73 45 113 107 19 28 39 52 45 52
13 0 11 -23 -14 -235 -8 -66 -14 -140 -14 -165 0 -25 -4 -133 -8 -241 -7 -175
-6 -202 9 -240 16 -38 17 -74 11 -347 -3 -168 -8 -309 -12 -315 -3 -5 3 -58
13 -118 15 -92 16 -116 5 -157 -12 -47 -11 -105 6 -407 3 -66 6 -166 5 -223
-1 -69 2 -112 11 -130 13 -25 18 -146 21 -482 0 -30 -7 -116 -17 -190 -9 -74
-17 -189 -17 -255 1 -66 1 -233 0 -371 0 -183 4 -271 14 -328 12 -61 13 -89 4
-129 -15 -72 9 -318 39 -401 10 -27 18 -101 23 -211 4 -93 13 -224 19 -290 6
-66 16 -176 22 -245 6 -69 15 -141 21 -160 11 -39 23 -133 38 -290 6 -58 17
-139 25 -180 11 -57 45 -286 45 -307 0 -2 601 -3 1335 -3 l1335 0 0 68 c0 37
-7 125 -15 197 -8 72 -17 173 -20 225 -3 52 -10 127 -15 165 -11 87 -14 294
-6 530 14 430 5 736 -22 779 -3 6 -10 117 -14 246 -4 129 -12 262 -17 295 -5
33 -10 166 -10 295 -1 129 -6 253 -11 275 -6 22 -12 87 -14 145 -7 180 -18
324 -28 349 -5 14 -11 75 -13 136 -3 61 -9 143 -15 181 -25 170 -29 216 -30
334 -2 200 5 438 11 445 4 3 -4 45 -18 93 -18 66 -27 130 -35 270 -5 101 -7
186 -4 189 3 4 26 -3 50 -15 66 -33 76 -29 116 41 48 85 105 139 197 186 113
59 202 114 248 154 22 19 55 42 73 51 18 9 63 39 100 66 37 27 131 83 210 125
l143 77 107 -11 c59 -6 141 -15 182 -21 125 -16 645 -30 755 -20 55 5 138 9
185 10 47 0 101 5 120 10 40 12 217 43 240 42 8 0 33 -7 55 -15 l40 -15 1 -74
2 -73 -69 -72 c-56 -59 -71 -83 -84 -130 -36 -127 -34 -123 -70 -123 -36 0
-97 -43 -133 -95 -20 -28 -22 -48 -26 -240 -7 -304 -17 -484 -27 -530 -5 -22
-11 -60 -12 -85 -3 -45 -25 -216 -52 -406 -8 -56 -15 -126 -15 -156 0 -30 -7
-76 -14 -103 -32 -106 -28 -222 10 -296 23 -45 93 -90 134 -87 38 3 39 7 25
94 -7 38 -4 45 29 81 28 32 36 49 36 79 1 22 8 71 17 109 9 39 17 108 18 155
1 47 8 166 15 265 6 99 10 212 6 250 -7 89 8 303 23 318 6 6 11 34 11 63 0 28
7 68 15 87 8 20 15 51 15 68 0 18 6 55 14 83 19 66 35 138 45 201 12 71 91
220 150 282 53 56 65 61 95 38 11 -8 30 -15 43 -15 33 0 31 43 -4 89 -35 45
-52 114 -53 214 0 62 5 87 24 125 13 26 31 72 41 102 46 143 255 538 401 761
24 36 50 83 58 106 23 65 56 124 108 193 62 82 209 304 236 356 11 22 40 66
65 99 24 33 57 85 72 115 15 30 56 96 91 147 34 50 75 115 90 145 15 29 39 71
54 93 15 22 42 69 60 105 18 36 46 84 61 107 33 47 128 246 165 342 13 35 44
95 68 135 25 39 57 105 72 146 14 41 41 100 59 131 18 31 42 77 53 103 30 66
76 130 159 219 41 43 99 114 129 158 31 44 87 108 126 142 38 34 106 107 151
162 90 111 184 218 298 339 41 45 95 108 119 141 24 33 82 101 129 151 47 50
124 133 171 185 47 52 123 129 170 173 47 43 110 107 140 142 124 142 208 243
255 304 81 107 132 163 186 205 55 43 79 83 71 121 -7 37 -45 42 -106 12 -72
-36 -109 -69 -173 -157 -30 -42 -85 -107 -122 -146 -63 -66 -109 -120 -173
-202 -40 -52 -232 -256 -415 -440 -147 -148 -217 -225 -443 -492 -41 -49 -96
-113 -122 -142 -66 -76 -138 -170 -138 -180 0 -5 -40 -51 -88 -101 -48 -51
-100 -110 -116 -131 -16 -20 -57 -60 -93 -88 -106 -85 -240 -263 -297 -398
-47 -108 -149 -308 -186 -361 -16 -25 -39 -74 -50 -110 -11 -36 -33 -87 -49
-115 -17 -27 -53 -95 -81 -150 -29 -55 -87 -158 -130 -230 -43 -71 -115 -193
-161 -270 -45 -77 -101 -165 -124 -195 -47 -64 -145 -220 -187 -300 -16 -30
-35 -58 -43 -63 -21 -11 -14 6 61 158 36 72 74 164 85 205 11 41 37 102 58
135 20 33 43 75 51 94 8 19 31 54 52 78 21 24 38 51 38 59 0 32 293 583 353
663 22 30 84 141 137 245 53 105 125 233 161 284 35 52 84 126 108 165 67 109
405 561 531 712 37 44 87 109 113 145 25 36 74 97 109 136 68 76 164 193 303
369 88 111 137 158 219 207 79 47 56 94 -41 86 -57 -5 -59 -6 -126 -79 -81
-88 -188 -210 -275 -316 -35 -42 -94 -109 -132 -150 -64 -69 -101 -116 -183
-235 -29 -43 -142 -182 -342 -423 -41 -49 -93 -119 -114 -155 -43 -72 -149
-219 -191 -265 -32 -35 -197 -307 -231 -380 -51 -109 -147 -270 -206 -342 -34
-42 -65 -90 -69 -107 -11 -57 -170 -332 -242 -420 -12 -16 -36 -58 -53 -94
-16 -37 -37 -74 -45 -83 -8 -9 -42 -70 -75 -135 -57 -111 -74 -154 -145 -344
-15 -41 -38 -91 -50 -110 -37 -55 -83 -218 -114 -396 l-28 -164 -73 -133 c-40
-72 -84 -152 -97 -177 -13 -25 -46 -81 -73 -125 -26 -44 -60 -111 -75 -150
-26 -69 -53 -105 -79 -105 -19 0 -32 47 -49 170 -31 217 -61 346 -92 397 -34
55 -56 64 -89 33 -13 -12 -28 -19 -34 -15 -22 13 -41 66 -52 142 -6 43 -17 98
-25 123 -14 40 -14 48 2 82 9 21 25 40 35 43 16 5 150 -17 278 -46 24 -5 45
-8 47 -7 2 2 9 21 16 43 l13 39 50 -4 c28 -2 72 -4 99 -5 l49 0 22 65 c12 36
25 93 29 127 4 34 18 89 31 122 19 45 25 79 25 131 0 49 6 81 17 103 10 18 23
75 29 127 12 100 30 181 70 316 13 45 24 94 24 109 0 14 5 35 11 46 5 11 14
44 19 74 12 71 74 203 136 286 46 63 150 212 249 359 25 36 54 83 66 105 12
22 38 65 59 95 20 30 66 112 103 182 51 98 65 134 61 155 -5 25 5 37 93 114
54 47 116 97 138 112 22 14 101 85 175 157 74 73 177 164 228 202 54 41 116
99 148 139 31 39 82 87 117 111 34 23 103 80 153 127 49 47 116 106 149 131
32 25 104 87 159 138 56 52 148 125 206 164 58 39 132 96 165 128 33 31 94 74
134 96 72 37 91 53 191 159 25 26 68 63 97 81 28 19 61 47 73 63 12 18 49 44
88 62 123 58 223 149 264 237 41 87 167 193 256 214 52 13 62 24 62 74 0 34
24 56 71 65 24 4 103 28 174 53 100 35 136 52 158 76 73 82 -11 113 -193 69
-153 -36 -140 -37 -140 11 0 36 -6 47 -37 76 l-36 33 27 11 c15 5 61 10 102
10 44 0 90 6 111 15 51 22 60 19 73 -20 21 -63 39 -53 260 146 175 158 310
265 498 393 31 21 98 69 147 106 50 37 110 78 135 90 25 12 81 47 124 78 44
30 104 65 135 77 31 12 86 42 123 67 36 25 92 56 125 68 32 12 105 42 163 67
125 54 295 113 326 113 19 0 23 -10 39 -91 15 -75 17 -123 12 -268 -3 -101 -1
-199 5 -230 5 -29 6 -57 1 -62 -5 -5 -91 -27 -192 -49 -101 -23 -238 -61 -305
-85 -161 -57 -373 -136 -521 -192 -66 -25 -185 -68 -265 -95 -159 -53 -435
-185 -516 -245 -185 -137 -282 -213 -301 -234 -12 -13 -33 -56 -48 -96 -28
-79 -25 -99 23 -125 32 -17 65 2 110 62 73 99 85 111 130 134 26 14 72 45 102
71 30 25 98 68 150 96 52 28 118 64 145 80 28 15 59 29 71 29 12 0 54 15 95
34 41 19 94 39 118 46 25 6 88 31 140 55 53 23 132 52 176 64 44 12 131 42
193 67 63 24 120 44 128 44 8 0 56 18 107 39 51 22 131 47 177 56 47 9 130 27
185 40 55 14 150 32 210 41 61 8 128 19 150 23 51 11 386 13 402 3 8 -5 10
-27 5 -77 -4 -39 -3 -101 1 -139 7 -56 6 -75 -8 -106 -15 -32 -15 -43 -4 -73
10 -28 10 -41 0 -66 -9 -20 -11 -52 -7 -98 6 -53 2 -86 -13 -147 -12 -44 -21
-97 -21 -119 0 -23 -6 -66 -14 -96 -19 -74 -46 -265 -46 -320 0 -24 -7 -69
-14 -100 -15 -55 -32 -169 -45 -286 -4 -40 -14 -71 -30 -91 -18 -25 -21 -36
-13 -51 7 -12 8 -63 3 -144 -6 -98 -12 -133 -29 -166 -12 -23 -22 -50 -22 -59
0 -31 -93 -239 -134 -299 -36 -52 -52 -64 -126 -102 -47 -23 -96 -53 -110 -66
-14 -14 -41 -32 -60 -40 -217 -95 -428 -211 -455 -250 -8 -12 -15 -37 -15 -57
0 -20 -7 -45 -15 -57 -20 -28 -190 -132 -318 -193 -114 -56 -234 -122 -347
-193 -96 -60 -269 -149 -366 -187 -112 -45 -170 -76 -215 -117 -47 -42 -99
-127 -99 -161 0 -12 -9 -40 -20 -62 -11 -22 -20 -47 -20 -57 0 -10 -15 -42
-34 -73 -46 -74 -105 -247 -118 -345 -6 -44 -21 -109 -34 -144 -13 -35 -24
-78 -24 -97 0 -59 -46 -99 -157 -134 -91 -29 -102 -30 -245 -28 l-150 3 -56
47 c-32 27 -77 62 -102 78 -25 17 -83 71 -130 120 -64 68 -91 90 -110 90 -28
0 -70 25 -70 42 0 7 12 8 33 4 292 -57 399 -83 512 -126 127 -49 326 -102 338
-91 4 4 12 36 18 71 8 52 7 66 -4 78 -17 16 -100 52 -192 84 -33 11 -76 28
-95 38 -19 9 -54 20 -77 24 -23 3 -68 22 -100 41 -54 33 -63 35 -144 35 -65 0
-90 4 -99 15 -8 9 -30 15 -60 15 -26 0 -64 7 -83 15 -21 8 -67 15 -106 15 -42
0 -87 7 -111 16 -22 9 -50 14 -63 10 -47 -12 -398 26 -465 51 -32 12 -53 14
-84 7 -25 -5 -74 -5 -121 0 -150 18 -296 -23 -313 -88 -7 -30 29 -116 63 -148
24 -23 25 -23 39 -4 8 11 14 35 14 53 0 22 6 36 19 43 37 19 60 11 89 -29 45
-66 86 -79 287 -91 135 -8 164 -13 295 -53 80 -25 167 -51 194 -58 66 -17 217
-117 294 -196 35 -35 81 -75 102 -88 51 -32 91 -84 111 -142 11 -35 21 -48 35
-48 13 0 19 7 19 25 0 22 4 25 33 22 19 -1 43 -7 53 -13 18 -9 18 -12 -13 -51
-18 -22 -58 -68 -88 -102 -70 -76 -244 -341 -278 -421 -14 -33 -42 -85 -61
-115 -20 -30 -68 -121 -108 -202 -40 -82 -81 -162 -93 -178 -11 -16 -27 -49
-34 -73 -7 -25 -25 -60 -39 -79 -14 -18 -44 -77 -65 -130 -50 -122 -26 -90
-395 -516 -82 -95 -210 -195 -305 -239 -42 -20 -62 -24 -96 -19 -51 8 -146 62
-224 129 -86 74 -95 79 -125 68 -18 -7 -42 -5 -89 10 -34 10 -71 19 -80 19 -9
0 -40 -22 -69 -48 -47 -43 -53 -54 -60 -103 -6 -48 -4 -58 17 -90 21 -30 24
-47 24 -125 0 -59 -5 -98 -15 -118 -13 -25 -13 -33 0 -72 10 -31 12 -51 5 -68
-5 -14 -11 -116 -14 -228 -4 -181 -7 -212 -30 -283 -13 -44 -32 -108 -40 -141
-9 -34 -29 -93 -45 -130 -16 -38 -39 -98 -51 -134 -12 -36 -32 -84 -46 -107
-13 -23 -24 -52 -24 -65 0 -38 -48 -124 -90 -162 -46 -41 -112 -76 -201 -106
-35 -12 -90 -33 -122 -46 -31 -13 -89 -31 -127 -39 -39 -8 -137 -37 -218 -64
-81 -27 -163 -52 -182 -56 -19 -4 -71 -18 -115 -31 -44 -13 -121 -28 -170 -33
-55 -6 -114 -19 -150 -35 -33 -13 -85 -32 -116 -40 -63 -18 -71 -25 -127 -120
l-41 -68 6 -82 c4 -67 12 -94 43 -156 21 -41 51 -127 68 -190 17 -63 50 -162
75 -220 25 -58 58 -148 75 -201 17 -52 44 -129 61 -171 16 -42 39 -109 50
-150 20 -77 97 -253 157 -363 34 -62 37 -65 74 -65 37 0 39 -2 104 -105 76
-121 224 -322 270 -369 18 -17 53 -49 79 -70 39 -32 52 -37 74 -31 50 13 101
10 121 -8 17 -15 18 -24 10 -75 -4 -31 -14 -75 -22 -97 -8 -22 -17 -84 -20
-138 -4 -54 -13 -127 -21 -162 -12 -50 -14 -96 -9 -198 4 -72 2 -202 -4 -287
-6 -85 -14 -224 -18 -307 l-7 -153 4137 0 c2275 0 4136 2 4136 5 0 3 -11 37
-24 77 -13 40 -34 116 -46 168 -28 118 -70 243 -106 312 -29 56 -49 122 -90
283 -14 55 -43 159 -65 231 -21 73 -39 152 -39 175 -1 53 -21 147 -46 212 -17
43 -17 50 -3 73 14 23 14 32 -7 104 -12 43 -30 122 -39 176 -9 55 -26 124 -37
154 -10 30 -23 80 -28 110 -11 65 -54 216 -81 282 -11 26 -19 65 -19 88 0 22
-11 66 -24 98 -13 31 -29 91 -36 132 -6 41 -21 110 -33 153 -17 66 -19 84 -8
112 10 29 9 38 -9 67 -11 18 -20 45 -20 60 0 15 -5 39 -11 54 -5 16 -12 49
-14 74 -14 149 -19 178 -32 210 -18 42 -27 99 -48 295 -15 146 -41 278 -90
460 -13 50 -29 128 -35 175 -25 191 -30 219 -48 320 -11 58 -27 134 -35 170
-8 36 -20 106 -27 156 -6 50 -20 119 -31 154 -10 34 -19 80 -19 103 0 22 -20
105 -45 183 -25 79 -49 174 -54 212 -8 63 -33 184 -81 387 -11 44 -24 110 -30
147 -6 37 -15 79 -20 93 -6 15 -10 42 -10 61 0 42 -28 164 -75 324 -19 63 -50
176 -70 250 -20 74 -54 189 -75 255 -22 66 -46 151 -55 189 -8 38 -31 119 -49
180 -18 61 -43 152 -55 201 -12 50 -32 126 -46 170 -13 44 -38 125 -55 180
-26 85 -30 116 -31 210 0 140 -38 373 -88 540 -10 33 -28 94 -41 135 -30 102
-148 344 -253 521 -48 81 -118 210 -157 288 -84 170 -123 225 -195 281 -30 23
-55 48 -55 55 0 15 48 36 160 73 47 15 122 49 167 76 70 42 86 56 104 95 11
25 40 80 64 121 44 76 94 205 122 315 9 33 27 95 40 138 14 43 23 90 20 105
-10 53 12 222 67 517 33 174 39 214 46 305 12 141 35 282 65 400 20 79 24 113
18 135 -5 17 -6 46 -1 65 4 19 11 154 15 300 6 260 5 266 -17 318 -15 35 -29
54 -44 56 -11 3 -107 7 -212 10 -149 4 -208 2 -264 -10 -40 -8 -80 -12 -90 -9
-35 11 -43 62 -51 310 -8 266 -17 339 -47 407 -23 54 -27 56 -100 74 -84 20
-109 18 -239 -22 -137 -41 -204 -70 -270 -116 -26 -18 -104 -63 -173 -99 -69
-36 -170 -90 -225 -119 -55 -29 -125 -70 -155 -90 -30 -21 -80 -53 -110 -73
-171 -111 -338 -228 -410 -289 -25 -21 -101 -82 -170 -137 -69 -54 -172 -144
-230 -200 -57 -56 -109 -101 -114 -101 -5 0 -20 10 -33 22 -24 23 -127 47
-203 48 -40 0 -232 -48 -260 -65 -11 -7 -60 31 -60 47 0 4 -21 35 -47 69 -41
52 -45 63 -35 79 18 29 15 39 -16 65 -34 29 -54 87 -45 138 3 20 29 79 58 132
29 52 56 111 59 130 4 20 23 68 41 107 30 62 35 83 35 144 0 83 11 98 80 109
84 13 175 46 210 75 83 71 98 83 151 118 112 74 165 124 649 633 58 61 132
133 165 160 37 30 96 98 155 178 88 121 120 152 120 117 0 -9 19 -18 51 -25
27 -6 80 -26 117 -45 91 -46 102 -49 169 -37 32 6 105 18 161 26 153 24 425
131 547 215 66 46 205 110 237 110 43 0 88 23 139 71 45 43 54 56 121 168 17
30 66 91 108 136 147 159 246 276 301 360 69 105 86 140 94 187 12 75 65 28
65 -57 0 -44 -108 -302 -165 -395 -19 -30 -60 -100 -91 -155 -56 -97 -132
-210 -179 -264 -96 -112 -178 -201 -183 -201 -4 0 -25 -17 -47 -38 -199 -184
-487 -333 -789 -407 -96 -23 -111 -25 -171 -14 -53 9 -75 19 -110 49 -45 39
-85 45 -85 13 0 -9 -6 -13 -15 -10 -22 9 -24 -4 -6 -58 13 -39 28 -59 74 -96
34 -27 81 -54 115 -64 51 -16 65 -17 146 -5 114 16 172 31 294 76 196 74 384
178 532 295 99 78 282 263 363 364 30 39 78 97 105 130 47 56 126 190 227 380
42 80 69 146 79 197 4 16 12 28 19 28 19 0 75 -63 148 -165 35 -49 86 -117
114 -150 28 -33 61 -78 74 -100 35 -58 53 -77 185 -188 352 -297 487 -376 726
-422 100 -20 132 -19 210 6 58 18 69 26 100 72 19 28 61 71 93 95 31 24 57 51
57 61 0 17 -34 53 -80 84 -14 9 -61 41 -105 70 -44 30 -99 73 -122 97 -54 56
-137 207 -157 285 -8 33 -24 86 -35 117 -11 32 -32 131 -47 220 -41 253 -25
339 79 417 69 53 199 114 320 151 54 16 111 39 127 50 15 11 54 32 87 48 32
15 72 37 88 48 17 12 55 34 85 49 30 15 80 45 110 65 30 20 75 50 100 66 24
16 70 55 102 87 36 36 58 53 58 43 0 -9 -5 -24 -11 -34 -16 -26 21 -94 67
-122 33 -21 45 -22 129 -17 94 5 112 11 225 73 34 18 59 24 110 24 42 0 80 7
107 19 55 26 160 152 217 261 24 47 57 110 73 141 16 30 33 64 36 75 3 10 13
37 21 59 9 22 16 48 16 58 0 23 22 66 76 147 23 36 68 117 99 180 31 63 70
136 86 161 30 48 41 80 83 241 19 75 46 136 111 257 90 170 116 249 129 397 3
39 13 91 21 115 33 91 98 423 115 579 32 302 39 1746 10 2035 -18 186 -24 411
-10 420 15 9 64 -37 96 -90 13 -22 45 -58 71 -80 25 -22 85 -76 133 -120 47
-44 165 -139 261 -211 217 -162 222 -165 289 -193 30 -13 84 -42 120 -65 75
-49 153 -82 297 -125 56 -17 158 -55 225 -85 139 -61 330 -122 496 -161 170
-39 201 -41 250 -16 45 23 118 27 187 11 22 -5 74 -12 115 -16 66 -5 78 -4
100 14 21 17 24 27 23 76 -2 94 -10 113 -60 147 -60 42 -91 48 -288 54 -92 3
-173 9 -179 13 -6 3 -39 9 -72 13 -45 4 -77 16 -120 42 -33 20 -88 45 -124 57
-36 12 -80 33 -98 46 -17 14 -56 33 -85 44 -28 10 -99 41 -157 69 -58 28 -116
51 -130 51 -14 1 -43 8 -65 16 -22 9 -64 22 -93 29 -31 8 -68 27 -90 46 -20
18 -68 48 -107 66 -38 18 -101 58 -140 89 -38 30 -121 94 -183 140 -174 130
-397 329 -428 381 -14 25 -61 91 -103 147 -84 112 -247 374 -286 458 -31 68
-75 221 -75 260 0 41 -37 217 -54 259 -7 19 -17 54 -21 79 -4 25 -17 99 -30
165 -13 66 -26 158 -30 205 -7 94 -46 327 -70 423 -15 61 -78 401 -97 527 -5
36 -18 101 -29 145 -11 44 -35 154 -55 245 -19 91 -60 281 -90 422 -30 142
-61 276 -69 299 -8 23 -15 57 -15 76 0 19 -13 114 -29 211 -67 404 -76 481
-91 722 -5 85 -15 209 -24 275 -8 66 -16 172 -17 235 -1 63 -6 142 -10 175
-13 96 -41 423 -44 510 -1 44 -7 146 -13 228 -9 128 -9 154 5 195 21 63 39
353 46 767 1 72 6 135 10 142 4 7 7 76 7 155 0 79 1 172 1 208 0 36 -3 84 -7
108 -6 36 -3 48 14 72 21 28 21 30 5 82 -13 42 -17 103 -18 303 -1 138 2 284
7 326 8 64 7 93 -11 179 -24 118 -28 367 -10 575 6 66 12 203 13 305 1 102 4
190 7 195 3 6 2 147 -2 315 -6 222 -13 344 -28 450 -12 79 -21 196 -21 258 0
71 -6 137 -16 175 -8 33 -13 71 -10 83 4 13 -3 57 -14 99 -14 52 -20 106 -20
179 0 76 -5 121 -20 169 -11 36 -25 110 -30 164 -5 59 -18 119 -30 148 -13 31
-20 65 -18 94 1 25 -3 62 -9 81 -23 69 -45 204 -39 238 4 25 0 41 -14 61 -21
27 -49 166 -50 236 0 22 -9 57 -19 77 -11 20 -27 64 -36 98 -9 34 -25 85 -37
113 -11 29 -21 66 -23 82 -4 38 -91 338 -112 385 -8 19 -19 61 -24 94 -6 32
-16 68 -24 80 -8 11 -20 47 -26 79 -7 32 -22 73 -34 91 -31 45 -46 95 -39 130
3 20 -1 35 -14 50 -11 11 -35 57 -54 101 -30 71 -132 227 -192 294 -42 47
-304 208 -391 241 -56 21 -80 22 -373 27 l-313 5 -52 -26 c-29 -14 -94 -41
-145 -61 -121 -45 -217 -94 -322 -163 -47 -30 -135 -81 -196 -113 -62 -31
-136 -77 -165 -101 -30 -23 -87 -63 -127 -87 -40 -24 -125 -91 -190 -148 -64
-58 -151 -135 -192 -172 -41 -37 -155 -131 -252 -209 -97 -78 -179 -146 -183
-151 -8 -13 -239 -200 -295 -238 -25 -17 -71 -53 -102 -79 -32 -27 -81 -68
-110 -91 -277 -220 -483 -411 -709 -658 -25 -28 -62 -65 -83 -84 -21 -18 -44
-48 -52 -67 -8 -18 -40 -62 -72 -96 -31 -35 -77 -85 -102 -113 -24 -27 -74
-75 -111 -106 -37 -31 -216 -205 -399 -388 -183 -182 -339 -331 -348 -331 -8
0 -51 29 -95 65 -92 76 -193 137 -291 177 -39 16 -93 41 -120 57 -28 15 -67
34 -86 42 -19 7 -55 26 -80 40 -25 15 -81 39 -125 54 -44 14 -103 37 -131 50
-29 13 -107 44 -175 69 -68 24 -180 67 -249 94 -144 57 -236 88 -300 101 -25
5 -74 17 -110 26 -48 13 -99 16 -195 14 -220 -5 -337 0 -410 15 -38 9 -99 20
-135 25 -36 6 -114 20 -175 31 -60 12 -148 25 -195 30 -215 22 -318 31 -490
40 -361 20 -430 30 -430 63 0 7 7 46 16 87 17 82 14 176 -10 264 -8 28 -33
129 -56 225 -24 96 -62 223 -86 282 -24 59 -50 137 -59 175 -8 37 -19 72 -24
78 -4 6 -20 43 -35 81 -30 75 -115 265 -148 330 -11 22 -39 86 -63 142 -38 92
-110 222 -211 378 -20 32 -48 83 -62 114 -14 31 -37 74 -52 96 -153 228 -192
288 -238 362 -68 112 -108 168 -154 212 -44 44 -78 99 -78 128 0 27 -28 56
-48 48 -22 -8 -60 21 -76 59 -7 18 -28 43 -44 55 -54 38 -184 239 -211 326 -7
22 -30 76 -51 120 -21 44 -41 88 -44 98 -5 16 -87 17 -1535 17 l-1529 0 -6
-22z m-2733 -6202 c-9 -16 -141 -124 -219 -179 -30 -22 -71 -60 -91 -85 -60
-77 -305 -312 -356 -341 -47 -27 -194 -159 -347 -311 -42 -41 -92 -87 -111
-102 -19 -14 -54 -45 -79 -67 -25 -22 -76 -62 -114 -88 -124 -85 -512 -467
-902 -888 -272 -294 -320 -352 -559 -667 -189 -249 -337 -468 -426 -628 -28
-52 -60 -106 -69 -120 -10 -14 -47 -79 -82 -145 -35 -66 -78 -145 -95 -175
-16 -30 -72 -131 -123 -225 -51 -93 -101 -182 -111 -197 -11 -14 -19 -29 -19
-32 0 -17 -79 -171 -126 -245 -67 -107 -87 -129 -148 -165 l-49 -29 6 33 c7
31 22 64 101 215 21 39 60 122 88 185 47 105 94 197 169 323 16 27 29 53 29
58 0 5 4 9 9 9 4 0 16 21 26 48 25 68 189 373 250 467 29 44 67 107 85 140 55
99 156 258 268 419 34 50 101 150 149 221 47 72 101 148 120 169 18 22 33 45
33 52 0 7 22 36 48 66 45 50 80 94 194 243 25 33 56 69 68 80 12 11 48 54 80
95 32 41 72 89 90 105 18 17 58 64 90 105 72 94 371 395 470 475 41 32 97 80
123 106 26 26 82 69 123 96 42 26 125 88 186 137 61 49 137 102 169 117 31 15
72 41 91 57 18 15 76 58 128 95 52 36 138 98 190 136 52 39 135 96 183 128
108 71 212 147 252 183 26 24 202 140 212 140 2 0 0 -6 -4 -14z m3937 -2110
c0 -3 -13 -40 -29 -83 -23 -64 -30 -107 -40 -238 -7 -88 -20 -196 -28 -240
-24 -121 -31 -175 -32 -230 0 -27 -14 -108 -30 -180 -17 -71 -36 -164 -42
-205 -6 -41 -20 -118 -30 -172 -11 -53 -19 -111 -19 -130 -1 -18 -7 -44 -15
-58 -8 -14 -14 -49 -15 -78 0 -29 -7 -87 -16 -130 -10 -48 -13 -96 -9 -127 5
-42 1 -60 -19 -106 -22 -46 -25 -69 -25 -144 1 -50 -4 -110 -11 -135 -26 -98
-45 -639 -31 -860 17 -247 18 -261 37 -351 14 -64 19 -146 21 -349 2 -146 8
-303 13 -350 4 -47 9 -134 9 -193 1 -96 33 -379 61 -528 5 -30 10 -67 10 -80
0 -14 12 -59 26 -100 15 -45 29 -115 35 -179 34 -386 33 -374 65 -444 13 -28
24 -59 24 -68 0 -28 20 -32 50 -10 26 20 29 20 43 4 8 -9 29 -48 48 -87 42
-87 155 -210 218 -237 24 -10 90 -23 145 -29 86 -9 108 -9 138 4 32 13 37 21
47 69 25 116 51 347 51 454 0 78 27 188 40 164 8 -16 35 -147 46 -225 6 -48
23 -96 101 -298 19 -49 43 -112 53 -140 27 -78 125 -289 169 -365 21 -37 66
-120 101 -185 34 -64 81 -143 104 -175 57 -79 77 -114 116 -211 18 -46 49
-104 67 -128 19 -25 41 -61 50 -81 73 -167 190 -344 321 -484 55 -59 114 -131
131 -161 37 -66 98 -135 221 -253 109 -105 118 -110 188 -120 82 -11 131 13
235 115 131 127 233 305 306 536 23 72 51 157 62 190 12 33 25 80 30 105 5 25
29 128 53 230 46 190 57 249 77 405 6 50 20 137 30 195 11 57 22 138 26 180 3
41 12 87 19 102 8 15 14 44 14 65 0 21 7 70 16 108 8 39 19 100 24 138 9 75
21 97 57 97 19 0 75 -21 91 -35 1 -1 -13 -26 -33 -55 -19 -28 -35 -60 -35 -70
0 -43 89 -52 517 -51 185 1 367 -4 409 -10 78 -11 242 -70 414 -150 47 -21 91
-39 97 -39 20 0 26 -20 10 -38 -8 -9 -49 -78 -92 -152 -42 -74 -97 -161 -121
-193 -24 -32 -48 -77 -54 -99 -6 -22 -30 -70 -52 -106 -22 -37 -56 -102 -74
-146 -19 -44 -58 -121 -88 -171 -31 -51 -65 -119 -76 -151 -12 -32 -77 -171
-145 -309 -68 -137 -133 -275 -144 -305 -31 -81 -127 -413 -145 -500 -41 -204
-45 -449 -11 -570 9 -31 18 -104 19 -165 3 -100 32 -438 42 -493 2 -12 24 -42
47 -67 33 -34 53 -46 85 -51 32 -5 43 -12 47 -28 16 -69 23 -152 18 -201 l-6
-56 49 -45 c72 -68 89 -77 112 -65 23 12 79 -1 113 -28 15 -11 49 -20 89 -24
39 -3 113 -23 180 -47 261 -94 281 -100 346 -90 32 4 70 13 84 18 20 8 30 5
55 -15 27 -23 35 -25 89 -19 101 10 167 50 292 172 61 60 122 129 135 154 16
30 49 63 102 103 61 46 83 70 103 110 13 29 48 82 78 118 67 84 172 268 216
379 19 47 47 107 63 133 38 63 67 139 67 180 0 17 16 70 36 117 20 47 46 126
59 175 12 50 35 124 50 165 15 41 31 102 35 135 22 167 32 224 45 264 8 25 15
60 15 78 0 19 6 48 13 66 9 20 13 68 11 132 -2 117 3 147 23 143 8 -2 57 -86
109 -187 94 -180 96 -187 141 -375 62 -263 119 -414 188 -496 36 -43 37 -46
30 -100 -4 -30 -10 -111 -15 -180 -5 -72 -21 -186 -39 -270 -18 -80 -43 -198
-56 -263 -14 -65 -34 -151 -44 -191 -10 -39 -22 -103 -26 -142 -3 -38 -23
-127 -44 -199 -22 -71 -51 -170 -65 -220 -15 -49 -34 -115 -42 -145 -9 -30
-40 -113 -69 -185 -29 -71 -69 -177 -89 -235 -20 -58 -48 -123 -61 -145 -14
-22 -34 -60 -46 -85 -12 -25 -55 -114 -95 -197 -41 -84 -74 -156 -74 -159 0
-4 -24 -47 -54 -98 -29 -50 -64 -110 -77 -133 -13 -23 -60 -99 -105 -170 -106
-169 -189 -330 -192 -371 -1 -18 -3 -38 -5 -44 -5 -26 27 -16 61 19 126 131
203 240 379 538 74 127 159 268 188 315 28 47 62 114 75 150 12 36 33 85 45
110 12 25 43 95 68 157 26 62 59 138 75 170 16 32 37 92 45 134 16 75 64 210
91 252 14 22 77 247 116 412 36 157 54 156 54 -3 0 -284 -12 -710 -22 -733 -6
-14 -13 -102 -16 -195 -9 -253 -25 -504 -36 -549 -5 -22 -12 -93 -15 -157 -4
-85 -11 -129 -25 -160 -18 -40 -19 -60 -14 -313 5 -205 3 -307 -9 -425 -8 -85
-16 -211 -16 -280 -1 -69 -6 -161 -10 -205 -5 -44 -10 -129 -10 -190 -2 -123
-16 -289 -26 -305 -4 -7 -12 -7 -25 0 -37 20 -135 12 -186 -15 -26 -14 -53
-25 -61 -25 -36 0 -432 -138 -529 -184 -137 -67 -199 -85 -322 -95 -117 -11
-156 -26 -220 -85 -55 -52 -73 -56 -87 -23 -15 34 -48 33 -79 -3 -14 -17 -26
-42 -26 -55 0 -13 -5 -36 -11 -52 -25 -65 -65 -438 -63 -586 l2 -78 -37 6
c-29 5 -60 -3 -152 -39 -63 -24 -156 -56 -205 -71 -49 -14 -116 -39 -149 -55
-154 -74 -409 -163 -695 -243 -69 -19 -165 -48 -215 -65 -49 -17 -124 -42
-165 -56 -290 -97 -373 -129 -515 -197 -88 -43 -184 -87 -213 -98 -30 -11 -84
-38 -121 -60 -59 -36 -83 -44 -187 -61 -195 -32 -310 -57 -336 -74 -14 -9 -67
-34 -118 -56 -52 -22 -106 -51 -120 -64 -14 -14 -56 -36 -95 -51 -38 -15 -140
-59 -225 -98 -141 -65 -160 -78 -210 -132 -99 -108 -223 -226 -279 -268 -31
-22 -80 -65 -110 -96 -42 -44 -52 -51 -46 -31 3 14 15 65 25 115 22 101 35
123 108 180 61 48 119 120 157 195 15 30 40 73 55 95 35 51 85 151 95 190 13
54 26 197 34 395 4 107 13 208 20 223 6 17 11 90 11 182 0 88 5 166 11 182 6
15 11 82 10 148 -1 78 4 139 14 175 8 30 15 74 15 98 0 49 10 52 71 21 42 -21
90 -21 196 2 24 5 73 14 110 20 38 6 93 15 123 20 30 5 127 14 215 19 88 5
185 14 215 19 120 20 232 42 256 52 34 12 198 39 304 48 61 6 101 16 143 36
77 37 91 60 84 134 -9 80 -14 89 -55 101 -47 13 -176 13 -239 0 -26 -5 -102
-21 -169 -35 -66 -14 -144 -25 -172 -25 -28 0 -69 -6 -89 -14 -62 -23 -170
-39 -222 -32 -30 4 -72 1 -112 -9 -35 -8 -87 -15 -115 -15 -28 0 -65 -5 -82
-11 -23 -8 -36 -7 -54 2 -27 15 -40 16 -649 22 -286 3 -482 10 -505 16 -22 6
-64 11 -94 11 -56 0 -230 22 -310 39 -25 6 -68 10 -96 11 -69 0 -197 34 -253
67 -25 15 -80 37 -121 49 -41 12 -122 39 -180 59 -82 29 -122 38 -185 40 -85
2 -196 34 -204 57 -2 7 -18 27 -35 44 -23 23 -44 33 -83 38 -34 4 -68 18 -100
39 -68 47 -149 83 -213 96 -30 6 -77 15 -103 21 -27 5 -61 18 -76 29 -14 11
-89 49 -165 85 -79 38 -176 93 -227 130 -48 36 -107 75 -131 87 -23 12 -73 47
-111 79 -37 32 -96 72 -130 90 -153 81 -214 133 -455 391 -58 62 -94 110 -102
135 -7 22 -24 59 -38 84 -13 25 -35 66 -48 92 -22 45 -26 47 -61 45 -35 -2
-39 1 -68 47 -16 27 -61 84 -100 126 -152 167 -203 227 -238 280 -52 79 -64
96 -127 185 -32 44 -72 109 -90 145 -18 36 -45 79 -60 95 -16 17 -54 78 -84
137 -30 59 -72 133 -94 165 -21 32 -61 96 -87 143 -27 47 -57 94 -67 106 -10
11 -33 49 -51 85 -44 84 -116 210 -362 634 -118 203 -133 231 -149 288 -9 31
-23 83 -32 115 -9 31 -27 78 -40 104 -13 26 -24 63 -24 83 0 40 33 179 57 240
9 22 19 79 24 127 5 48 24 145 42 215 36 132 56 218 103 433 31 145 50 222 92
375 44 158 61 237 72 324 6 42 17 98 26 125 15 46 15 53 0 102 -17 54 -44 81
-71 70 -17 -6 -38 18 -33 40 2 10 17 22 33 27 41 13 75 46 75 72 0 11 -9 61
-20 111 -10 49 -22 127 -26 174 -3 47 -16 130 -29 185 -13 55 -26 125 -29 155
-11 110 -25 206 -35 238 -5 18 -10 63 -9 100 0 37 -7 92 -15 122 -21 77 -37
198 -41 311 -2 53 -6 101 -9 106 -9 14 -37 209 -37 254 0 20 -6 70 -14 110 -8
41 -22 121 -31 179 -9 58 -22 114 -29 125 -26 40 -28 96 -6 164 11 35 20 74
20 87 0 26 81 247 111 302 10 20 19 44 19 53 0 29 40 142 56 160 9 10 40 27
70 39 38 16 60 32 70 51 29 56 47 61 252 65 103 2 210 8 237 14 28 6 63 13 78
17 18 3 47 -3 86 -21 72 -32 83 -32 171 0 40 14 74 23 77 21 2 -3 9 -137 15
-299 5 -161 11 -331 13 -378 2 -47 10 -114 19 -150 9 -39 16 -111 16 -180 0
-120 13 -202 49 -307 27 -80 26 -117 -2 -167 -49 -86 -121 -352 -137 -512 -5
-49 -16 -109 -24 -132 -15 -40 -20 -77 -51 -312 -34 -261 -44 -464 -25 -499 5
-10 16 -64 24 -120 18 -115 61 -314 83 -381 22 -67 132 -339 155 -385 43 -84
168 -264 201 -290 20 -14 61 -36 93 -48 52 -21 60 -28 89 -82 21 -37 52 -74
86 -102 94 -75 283 -121 389 -93 98 25 90 27 90 -18 0 -37 3 -41 41 -56 22 -9
90 -24 151 -33 89 -13 117 -13 150 -4 49 15 123 82 175 159 21 31 55 77 76
101 29 34 46 71 74 160 20 64 49 148 64 187 16 39 38 111 49 160 11 49 38 127
60 174 53 115 104 335 101 440 -1 20 12 73 29 118 24 66 33 114 45 249 9 93
26 249 39 348 13 99 24 212 25 250 1 39 3 131 6 205 3 74 5 192 4 263 0 73 4
127 9 127 16 0 31 -24 52 -81 56 -157 68 -183 88 -190 31 -12 62 1 68 27 17
69 -47 297 -171 614 -31 78 -37 106 -36 160 1 81 -20 156 -68 237 -23 38 -43
87 -50 125 -17 87 -47 134 -154 241 -51 51 -108 116 -127 145 -40 60 -157 210
-204 261 -17 18 -69 63 -116 99 -172 133 -210 166 -210 180 0 23 78 286 114
385 19 51 69 163 111 251 42 87 85 181 96 210 25 62 108 236 121 253 6 8 30
-1 86 -32 43 -24 113 -53 157 -64 90 -23 215 -33 221 -16 2 5 0 34 -4 64 -7
51 -9 55 -45 67 -21 8 -61 30 -88 50 -63 46 -157 76 -210 68 -21 -4 -39 -3
-39 2 0 8 101 232 122 268 77 139 128 237 128 245 0 21 84 200 150 321 38 69
87 170 108 225 22 55 68 161 102 235 34 74 81 178 105 230 24 52 49 118 56
145 6 28 37 100 68 160 31 61 84 171 118 245 181 396 256 546 309 615 22 29
54 47 54 31z m4460 -1091 c5 -14 9 -47 9 -73 -1 -57 16 -215 36 -332 8 -47 22
-152 30 -235 9 -82 23 -201 31 -263 8 -62 14 -142 14 -177 0 -35 4 -75 10 -89
5 -14 14 -65 20 -113 6 -48 17 -110 25 -138 7 -27 16 -81 20 -120 6 -63 20
-151 61 -377 7 -43 34 -149 58 -235 52 -185 79 -289 101 -393 8 -41 36 -131
61 -200 26 -69 49 -140 51 -159 5 -32 4 -34 -18 -27 -64 18 -158 36 -196 36
-33 0 -50 7 -77 30 -33 30 -35 30 -80 18 -42 -11 -50 -10 -89 9 -31 17 -64 23
-128 26 -63 2 -95 8 -115 21 -26 18 -28 18 -40 1 -8 -11 -35 -20 -79 -25 -182
-23 -98 -98 174 -156 107 -23 199 -49 391 -111 41 -13 113 -35 160 -49 109
-33 187 -70 205 -97 7 -12 34 -87 60 -166 26 -79 70 -193 97 -255 59 -131 158
-390 158 -414 0 -10 25 -121 56 -247 31 -127 58 -241 61 -255 l6 -25 -24 22
c-13 12 -47 30 -75 41 -29 10 -67 31 -85 45 -40 30 -103 57 -133 57 -11 0 -66
16 -121 35 -55 19 -139 42 -186 50 -47 8 -110 22 -140 31 -30 9 -83 18 -119
19 -36 1 -85 10 -110 19 -42 17 -161 22 -330 15 -25 -1 -66 2 -92 6 -27 4 -73
3 -110 -4 -35 -6 -122 -13 -193 -15 -72 -3 -157 -11 -190 -19 -80 -21 -186
-31 -231 -23 -29 6 -34 11 -28 24 13 31 66 226 76 282 5 30 18 98 28 150 11
52 29 142 40 200 11 58 34 148 51 200 16 52 34 115 39 140 41 215 54 282 80
395 17 72 35 165 41 208 12 94 44 231 99 437 62 229 168 661 181 738 11 63 85
364 179 727 23 88 53 203 66 256 13 53 38 130 54 171 16 40 34 94 39 118 6 25
22 86 36 135 44 153 65 184 85 130z m-7274 -682 c-6 -53 -26 -133 -77 -303
-11 -36 -19 -74 -19 -84 0 -10 -13 -60 -29 -110 -16 -50 -34 -127 -41 -171 -6
-44 -22 -138 -36 -208 -13 -70 -28 -185 -34 -255 -27 -349 -63 -590 -91 -607
-5 -4 -50 -1 -100 6 -83 11 -91 11 -103 -6 -12 -16 -18 -17 -59 -7 -64 17 -99
15 -197 -8 -118 -29 -200 -37 -200 -20 0 7 40 84 90 170 49 86 103 185 120
221 16 35 55 107 85 159 30 52 73 133 96 180 23 47 52 101 64 120 12 19 55 98
95 175 40 77 89 169 110 205 21 36 48 92 61 125 13 33 54 112 90 175 36 63 81
144 99 180 34 68 67 120 77 120 3 0 3 -26 -1 -57z m-3710 -2838 c4 -9 -3 -41
-14 -73 -12 -31 -28 -104 -38 -162 -9 -58 -23 -123 -31 -145 -9 -22 -23 -80
-34 -128 -10 -49 -27 -103 -39 -120 l-21 -32 6 75 c12 158 49 331 84 398 5 10
11 40 15 69 12 98 54 167 72 118z m-546 -815 c0 -14 -49 -110 -56 -110 -8 0 6
81 18 103 9 18 38 24 38 7z m-30 -168 c0 -3 -9 -51 -19 -107 -11 -55 -25 -154
-31 -220 -6 -66 -17 -170 -26 -231 -16 -122 -35 -446 -27 -485 2 -14 0 -74 -6
-134 -7 -61 -16 -189 -21 -285 -5 -96 -16 -231 -24 -300 -20 -162 -29 -622
-14 -715 12 -79 44 -153 73 -169 11 -6 29 -21 41 -33 21 -21 22 -33 26 -285 8
-425 19 -740 27 -778 4 -19 3 -55 -2 -80 -7 -32 -6 -54 4 -80 7 -19 14 -84 16
-145 2 -60 8 -141 12 -180 5 -38 8 -71 6 -73 -2 -2 -17 17 -34 42 -33 47 -38
75 -20 104 9 14 6 27 -12 61 -52 95 -62 119 -86 199 -13 45 -39 119 -57 165
-35 88 -49 138 -90 337 -83 403 -107 612 -113 985 -2 149 -5 297 -6 330 -1 33
4 101 10 150 7 50 14 212 17 360 4 184 10 291 20 335 8 36 24 106 35 155 11
50 21 119 22 155 1 36 11 101 21 145 10 44 27 125 37 180 32 171 61 274 110
399 27 67 54 139 61 161 7 22 14 43 17 47 4 8 33 -1 33 -10z m11710 -1589 c-1
-54 -16 -113 -34 -131 -9 -9 -17 -14 -20 -11 -6 6 12 122 23 152 15 39 31 33
31 -10z m8274 -219 c3 -9 6 -25 6 -36 0 -25 -33 -21 -38 5 -8 38 19 64 32 31z
m-15393 -184 c-6 -65 -11 -155 -11 -200 0 -86 -12 -101 -37 -48 -21 41 -1 287
29 363 20 53 23 57 26 31 2 -15 -1 -81 -7 -146z m15422 -177 c16 -149 38 -323
47 -372 5 -30 10 -78 10 -107 0 -29 4 -75 9 -101 6 -26 12 -79 15 -118 3 -38
11 -119 18 -180 7 -60 13 -200 13 -310 -1 -241 -14 -314 -78 -436 -24 -46 -50
-109 -57 -139 -20 -85 -61 -210 -70 -210 -14 0 -18 113 -9 250 4 74 10 275 12
447 3 234 7 316 17 328 10 12 10 25 1 59 -8 32 -8 73 -1 143 10 93 29 468 36
693 2 58 3 106 4 108 0 1 6 2 14 2 9 0 15 -19 19 -57z m-8619 -180 c-4 -10
-10 -49 -14 -88 -6 -63 -31 -135 -47 -135 -10 0 8 122 23 158 8 19 14 45 14
58 0 15 6 24 16 24 12 0 14 -5 8 -17z m-6510 -229 c3 -26 6 -63 6 -83 0 -25
11 -53 35 -88 19 -29 35 -57 35 -63 0 -10 -40 -30 -60 -30 -23 0 -50 46 -50
84 0 23 -7 59 -15 81 -19 54 -19 104 2 127 26 29 40 21 47 -28z m726 -137 c0
-14 -20 -37 -32 -37 -12 0 -10 24 4 38 16 16 28 15 28 -1z m-184 -105 c-9 -8
-26 10 -26 26 1 15 2 15 15 -2 8 -11 13 -21 11 -24z m152 3 c14 -30 16 -62 4
-67 -4 -1 -23 -23 -42 -48 -63 -81 -99 -98 -124 -58 -8 13 -5 22 13 42 23 25
29 59 18 103 -5 18 1 24 36 37 62 22 82 20 95 -9z m7066 -634 c-15 -38 -34
-55 -34 -30 0 15 41 81 47 76 2 -3 -4 -23 -13 -46z m-1156 -301 c-1 -22 -3
-38 -5 -36 -8 8 -21 65 -15 70 14 15 22 3 20 -34z m159 -546 c-3 -3 -12 -4
-19 -1 -8 3 -5 6 6 6 11 1 17 -2 13 -5z m748 -144 c11 -18 -15 -51 -38 -48
-25 3 -35 37 -15 49 18 12 45 11 53 -1z m-10844 -2333 c6 -14 7 -31 1 -47
l-10 -25 -11 28 c-22 56 -4 96 20 44z m4167 -1451 c13 -19 41 -87 63 -150 48
-144 138 -328 205 -421 28 -38 64 -92 79 -119 15 -28 40 -66 56 -85 l29 -35
-25 -16 c-14 -8 -28 -22 -30 -31 -3 -10 -13 -20 -21 -23 -8 -3 -13 -10 -9 -15
9 -16 -53 -55 -215 -135 -173 -86 -259 -150 -318 -238 -69 -102 -70 -104 -90
-92 -42 26 -60 35 -114 55 -34 12 -58 26 -58 35 0 14 61 57 114 79 39 17 71
47 91 85 32 61 73 198 85 280 6 47 20 123 31 170 19 85 43 301 54 480 3 52 10
109 15 125 4 17 11 42 14 58 8 35 16 34 44 -7z m1632 -361 c6 -8 9 -19 5 -25
-10 -16 -42 -12 -49 6 -12 32 21 47 44 19z m-112 -149 c3 -13 -1 -17 -14 -14
-11 2 -20 11 -22 22 -3 13 1 17 14 14 11 -2 20 -11 22 -22z m115 -90 c18 -8
55 -35 82 -60 l50 -45 -37 -15 c-21 -9 -50 -16 -65 -16 -15 0 -57 -14 -91 -30
-89 -42 -92 -41 -92 25 0 67 20 109 63 135 38 24 48 24 90 6z m6330 -88 c3
-11 0 -51 -8 -87 -49 -228 -67 -325 -75 -391 -5 -41 -16 -104 -24 -140 -9 -36
-27 -119 -40 -185 -33 -163 -73 -323 -91 -363 -19 -42 -19 -66 0 -82 26 -22
17 -48 -22 -69 -21 -10 -46 -28 -57 -40 -16 -18 -17 -24 -6 -52 31 -73 107
-76 244 -8 83 41 142 50 152 24 8 -19 -14 -82 -42 -125 -13 -20 -37 -74 -52
-120 -16 -47 -46 -121 -66 -165 -21 -44 -44 -98 -52 -119 -19 -53 -20 -160 -2
-189 8 -12 28 -58 43 -102 15 -44 61 -148 101 -230 41 -83 74 -157 74 -165 0
-8 -17 -29 -37 -46 -36 -30 -36 -31 -20 -55 9 -13 17 -27 17 -31 0 -5 -19 -29
-41 -53 l-42 -45 26 -39 c17 -25 39 -43 62 -51 19 -6 35 -15 35 -18 -1 -13
-115 -129 -180 -183 -36 -30 -67 -56 -70 -60 -3 -3 -32 -24 -65 -46 -34 -23
-67 -48 -75 -58 -8 -9 -34 -31 -59 -48 -25 -17 -82 -63 -126 -102 -87 -78
-282 -232 -358 -284 -27 -18 -71 -53 -98 -77 -27 -24 -72 -55 -99 -69 -28 -14
-50 -29 -50 -34 0 -5 -42 -43 -92 -84 -51 -41 -109 -92 -128 -112 -19 -20 -62
-55 -95 -78 -33 -22 -100 -80 -150 -127 -49 -48 -110 -100 -134 -115 -91 -56
-285 -228 -313 -275 -14 -26 -39 -55 -55 -65 -15 -10 -49 -39 -74 -64 -80 -80
-177 -163 -235 -202 -31 -21 -82 -64 -113 -96 -74 -77 -129 -124 -291 -246
-74 -56 -170 -139 -213 -184 -43 -45 -142 -133 -220 -196 -78 -64 -180 -152
-227 -196 -74 -72 -102 -90 -220 -148 -74 -37 -183 -99 -241 -139 -58 -39
-140 -91 -182 -114 -45 -24 -79 -50 -83 -62 -6 -19 -11 -20 -83 -14 -188 16
-181 14 -181 49 0 18 -10 61 -21 97 -15 47 -20 92 -20 160 0 52 -7 125 -16
162 -11 49 -12 71 -4 86 17 31 13 51 -14 84 -30 36 -31 49 -4 74 29 26 23 122
-10 158 -33 35 -62 138 -71 251 -11 147 -36 339 -70 535 -17 97 -20 132 -11
155 7 20 7 61 2 120 -5 50 -7 104 -4 120 3 17 -2 58 -11 90 -11 45 -16 152
-22 435 -5 295 -10 385 -22 420 -26 78 -54 203 -57 255 -5 92 -52 247 -103
338 -76 138 -103 169 -217 253 -140 102 -175 133 -186 161 -5 13 -17 23 -28
23 -56 0 -70 -116 -23 -191 28 -43 121 -135 215 -214 58 -48 137 -157 137
-188 0 -31 -72 -115 -139 -163 -125 -90 -268 -199 -301 -229 -19 -18 -47 -39
-62 -47 -15 -7 -58 -39 -95 -70 -38 -31 -98 -81 -134 -110 -102 -82 -221 -189
-369 -332 -145 -141 -196 -197 -229 -249 -11 -18 -51 -62 -88 -99 -55 -53 -77
-67 -111 -73 -24 -4 -45 -5 -48 -3 -2 3 0 31 4 64 4 32 3 83 -2 112 -13 72 4
88 34 34 41 -72 97 -82 135 -22 18 28 35 42 62 49 47 13 93 68 93 111 0 17 14
58 30 91 17 33 46 103 66 157 19 53 55 141 80 194 29 62 53 133 65 194 11 54
31 123 45 155 13 32 24 71 24 86 0 15 12 55 26 88 14 33 37 92 51 130 14 39
55 131 90 205 36 74 76 163 89 197 13 33 43 108 68 166 25 58 48 122 52 143 3
22 11 44 16 50 5 7 45 15 89 19 89 8 88 7 64 81 -6 18 3 24 65 49 40 16 107
51 149 77 42 27 107 58 145 69 38 12 214 90 390 175 177 85 332 154 346 154
55 0 171 42 252 90 46 28 104 54 128 58 39 7 44 11 55 47 6 22 18 50 26 63 13
23 156 97 244 128 22 8 65 30 96 49 31 19 73 38 95 44 21 5 129 43 239 86 125
47 224 79 265 85 36 4 123 29 195 55 71 25 181 60 244 76 64 17 147 43 186 59
38 15 88 31 110 34 22 3 72 22 110 42 39 20 119 52 179 71 60 19 155 54 210
78 56 24 120 46 141 50 70 12 203 55 323 104 64 27 142 54 172 61 30 7 83 23
118 36 35 13 86 26 115 30 29 4 63 12 77 20 14 7 73 21 131 32 58 11 148 37
200 58 73 29 106 37 149 36 45 -1 67 5 120 32 78 41 106 44 113 14z m-5459
-47 l28 -30 -21 -29 c-30 -42 -74 -79 -176 -146 -193 -127 -243 -162 -335
-231 -52 -39 -129 -92 -170 -118 -41 -25 -102 -69 -135 -98 -33 -28 -96 -75
-140 -104 -44 -29 -89 -63 -100 -75 -11 -13 -60 -53 -110 -90 -124 -94 -264
-225 -339 -317 -34 -43 -87 -109 -119 -148 -48 -60 -57 -76 -57 -111 0 -25 7
-51 19 -65 10 -13 23 -34 30 -46 11 -21 10 -22 -11 -12 -25 11 -79 98 -123
196 -15 34 -36 70 -47 80 -19 17 -21 17 -56 -3 -20 -12 -47 -36 -59 -54 -21
-31 -22 -34 -6 -69 8 -20 24 -57 34 -82 10 -25 61 -107 113 -182 95 -136 130
-179 365 -448 l124 -142 8 -86 c4 -47 18 -123 30 -170 l22 -86 -24 -55 c-13
-30 -45 -83 -70 -117 -51 -67 -56 -84 -64 -248 -4 -73 -9 -93 -27 -112 -30
-32 -81 -40 -122 -18 -75 40 -230 -17 -382 -141 -43 -35 -113 -83 -154 -107
-41 -24 -124 -72 -185 -107 -60 -34 -126 -75 -145 -90 -19 -15 -53 -36 -75
-48 -22 -11 -81 -56 -130 -101 -97 -87 -118 -95 -164 -62 -15 11 -50 25 -77
32 -80 19 -123 49 -196 139 -39 47 -88 94 -111 108 -62 35 -127 102 -127 131
0 43 110 353 150 420 21 37 49 98 61 136 12 39 48 122 79 185 91 182 145 314
191 465 23 77 52 160 64 185 12 25 32 77 45 115 34 103 46 125 110 185 l57 55
12 110 c17 162 31 225 58 275 14 25 47 113 73 195 49 152 97 281 130 345 14
27 35 44 91 72 41 20 97 45 124 54 28 9 122 50 210 89 88 40 178 78 200 85 22
7 81 34 130 60 114 61 201 97 289 122 38 10 110 36 160 58 50 21 105 42 121
46 17 4 39 13 50 20 11 7 47 20 81 28 34 9 87 28 118 42 42 19 96 31 199 44
128 16 145 16 175 3 40 -19 79 -6 111 38 14 19 31 29 49 29 15 1 41 7 57 15
45 20 58 18 89 -14z m-2134 -175 c0 -3 -4 -8 -10 -11 -5 -3 -10 -1 -10 4 0 6
5 11 10 11 6 0 10 -2 10 -4z m2184 -48 c3 -13 7 -77 10 -142 4 -65 12 -131 19
-145 7 -14 29 -35 49 -46 20 -11 39 -29 42 -40 3 -11 6 -126 6 -256 0 -208 -2
-245 -20 -305 -51 -175 -51 -176 -125 -251 -39 -40 -77 -73 -84 -73 -14 0 -13
62 5 198 6 48 5 52 -14 52 -62 0 -128 -111 -142 -239 -5 -47 -16 -108 -24
-136 -9 -27 -18 -77 -22 -110 -3 -33 -15 -111 -25 -173 -26 -156 -25 -219 3
-249 21 -22 21 -26 8 -76 -24 -94 -200 -519 -249 -602 -98 -165 -114 -206
-169 -430 -21 -83 -41 -138 -66 -179 -19 -32 -51 -107 -71 -166 -54 -161 -65
-162 -65 -4 0 141 -27 281 -69 359 -13 24 -21 58 -21 86 0 25 -9 71 -19 102
-11 30 -24 105 -30 166 -7 61 -16 124 -22 139 -6 15 -14 63 -19 107 -5 44 -20
120 -34 169 -15 49 -24 98 -21 108 4 11 -17 64 -57 140 -57 112 -74 134 -180
245 -65 67 -118 126 -118 131 0 5 -34 51 -75 103 -64 80 -72 95 -61 109 7 8
24 40 38 70 31 69 93 147 234 292 142 147 287 274 348 305 27 14 69 44 95 67
70 64 200 161 361 269 441 295 473 319 503 375 22 41 34 52 52 52 17 0 26 -7
29 -22z m116 -37 c0 -6 -4 -13 -10 -16 -5 -3 -10 1 -10 9 0 9 5 16 10 16 6 0
10 -4 10 -9z m-2256 -162 c29 -8 56 -8 103 1 35 7 67 9 71 5 13 -13 -45 -52
-124 -84 -147 -59 -179 -75 -254 -124 -92 -59 -133 -111 -166 -211 -14 -42
-30 -76 -34 -76 -13 0 -91 92 -108 128 -15 31 -15 35 3 69 31 58 93 114 205
188 100 66 202 113 245 114 11 1 38 -4 59 -10z m-1389 -164 c33 -7 79 -16 102
-18 23 -3 54 -14 69 -26 15 -12 34 -21 43 -21 9 0 33 -14 53 -30 27 -22 55
-34 100 -42 93 -16 212 -83 335 -187 22 -20 62 -53 87 -74 26 -22 56 -57 67
-80 20 -37 20 -48 11 -136 -6 -53 -20 -123 -32 -156 -11 -33 -46 -136 -76
-230 -31 -93 -69 -191 -85 -217 -17 -25 -39 -79 -51 -120 -11 -40 -31 -96 -43
-124 -13 -29 -31 -78 -40 -110 -9 -32 -27 -79 -40 -104 -12 -25 -32 -81 -44
-125 -13 -45 -43 -116 -71 -165 -27 -47 -61 -114 -76 -150 -14 -35 -41 -95
-60 -133 -19 -38 -43 -96 -54 -129 -10 -33 -25 -67 -33 -76 -8 -10 -17 -35
-20 -56 -4 -22 -17 -62 -31 -90 -13 -28 -31 -68 -40 -88 -12 -31 -20 -38 -42
-38 -31 0 -95 61 -139 130 -14 23 -40 49 -56 59 -32 20 -94 115 -84 130 3 5 1
21 -5 35 -7 21 -16 26 -42 26 -23 0 -37 7 -46 21 -11 16 -16 18 -28 9 -8 -7
-14 -23 -14 -36 0 -17 -7 -25 -22 -28 -13 -2 -65 -12 -116 -21 -52 -10 -107
-14 -127 -11 -35 7 -66 39 -79 84 -6 16 -15 22 -37 22 -16 0 -51 11 -77 24
-87 43 -156 58 -219 46 -31 -5 -75 -10 -96 -10 l-40 0 7 83 c7 92 22 153 60
244 32 77 34 159 7 255 -11 36 -22 100 -26 141 -6 66 -4 80 20 138 14 35 51
135 81 222 30 87 59 168 65 178 5 11 14 45 19 76 5 31 20 72 34 92 44 65 106
192 106 217 0 13 15 41 35 63 19 21 35 48 35 59 0 11 23 49 50 83 28 34 55 79
60 99 5 19 25 51 44 69 19 19 43 58 55 91 23 62 60 102 121 128 68 30 313 34
425 7z m-1075 -2454 c123 -5 145 -8 148 -22 2 -13 -22 -25 -110 -53 -62 -20
-121 -36 -130 -36 -12 0 -28 21 -48 59 -16 33 -35 62 -42 65 -7 3 -2 3 12 0
13 -4 90 -9 170 -13z m-303 -147 c28 -13 60 -24 70 -24 10 0 25 -5 33 -10 13
-9 13 -11 0 -20 -19 -12 -42 -13 -75 0 -38 15 -63 -3 -91 -65 -23 -50 -24 -55
-10 -96 9 -26 12 -47 6 -53 -16 -16 -37 2 -45 41 -10 55 -23 73 -50 73 -28 0
-102 -81 -111 -120 -15 -74 -28 -103 -69 -155 -27 -35 -47 -73 -50 -94 -3 -20
-10 -58 -15 -84 -16 -80 -12 -136 20 -236 16 -53 43 -143 60 -201 18 -61 45
-126 65 -155 47 -71 80 -141 100 -210 10 -33 35 -86 56 -119 64 -96 64 -89
-13 -301 -29 -79 -63 -148 -99 -201 -130 -195 -240 -419 -277 -567 -17 -65
-34 -98 -99 -194 -89 -131 -106 -148 -164 -157 -22 -4 -58 -15 -80 -26 -50
-26 -55 -25 -34 7 14 21 16 39 12 91 l-7 65 42 46 c74 82 151 141 196 153 66
16 72 40 33 123 -17 37 -31 83 -31 102 0 18 -7 63 -16 99 -20 77 -43 96 -134
115 -30 6 -88 20 -128 30 -40 11 -80 19 -91 19 -10 0 -26 9 -36 20 -15 17 -17
33 -10 152 6 110 12 147 36 212 21 58 29 98 29 147 0 37 7 103 15 146 8 43 15
112 15 153 0 54 8 101 29 170 16 52 37 138 46 190 10 52 31 131 48 175 16 44
42 114 58 155 15 41 31 95 34 120 4 25 20 88 36 142 16 53 29 114 29 136 0 22
7 59 15 82 8 23 15 56 15 72 0 31 16 68 34 80 6 5 133 5 281 2 257 -6 273 -7
322 -30z m3333 -465 c0 -7 -16 -76 -35 -155 -19 -78 -35 -155 -35 -169 0 -14
-6 -36 -12 -48 -9 -14 -13 -64 -13 -142 l0 -120 -53 -28 c-71 -39 -85 -33 -66
29 8 26 14 72 14 101 0 31 8 74 20 101 31 77 88 234 100 281 23 87 80 193 80
150z m2113 -136 c7 -107 -1 -118 -137 -188 -61 -32 -128 -71 -149 -87 -36 -29
-167 -78 -206 -78 -10 0 -38 -11 -62 -23 -24 -13 -62 -30 -84 -37 -22 -7 -54
-21 -71 -31 -38 -23 -62 -24 -89 -3 -23 18 -34 9 110 99 53 33 153 97 223 143
70 46 154 96 187 111 56 26 162 93 230 147 17 13 33 24 36 24 4 0 9 -35 12
-77z m-963 -561 c0 -13 -49 -56 -56 -49 -10 10 24 57 41 57 8 0 15 -4 15 -8z
m4370 -2013 c0 -5 -4 -9 -8 -9 -5 0 -9 7 -9 15 0 8 4 12 9 9 4 -3 8 -9 8 -15z
m-2212 -2449 c1 -14 -2 -32 -8 -40 -9 -13 -11 -13 -20 0 -5 8 -10 28 -10 43 0
22 4 28 18 25 10 -2 18 -14 20 -28z m692 -2400 c6 -11 15 -68 21 -127 5 -60
19 -148 30 -198 10 -49 19 -99 19 -110 0 -12 18 -75 40 -140 35 -103 43 -142
55 -280 8 -88 20 -200 26 -250 6 -49 15 -123 19 -162 11 -94 22 -127 82 -245
l49 -96 -16 -125 c-8 -69 -15 -153 -15 -187 0 -72 -32 -305 -47 -347 -7 -19
-21 -7 -44 40 -12 23 -38 62 -58 87 -52 64 -114 157 -141 210 -27 52 -102 153
-195 260 -81 93 -125 182 -125 249 0 68 -25 186 -67 316 -29 88 -37 134 -43
230 -8 120 -14 153 -68 385 -17 69 -33 145 -37 170 -4 25 -13 61 -20 81 -7 20
-10 41 -7 46 4 6 41 21 82 33 41 12 143 55 225 95 83 40 157 75 165 78 32 11
60 6 70 -13z m-664 -215 c8 -31 -13 -60 -31 -45 -14 11 -25 56 -17 65 15 14
42 3 48 -20z"/>
<path d="M12973 21029 c-17 -5 -50 -30 -72 -55 -57 -65 -191 -257 -235 -337
-21 -37 -69 -104 -107 -150 -80 -97 -124 -176 -115 -211 3 -14 18 -29 37 -37
48 -19 105 15 177 108 87 113 103 136 157 223 28 44 83 131 124 193 96 145
131 212 131 248 0 26 -3 29 -32 28 -18 0 -47 -5 -65 -10z"/>
<path d="M13347 20865 c-102 -38 -279 -193 -328 -287 -10 -20 -42 -63 -70 -95
-60 -68 -139 -198 -139 -230 0 -40 18 -73 41 -73 35 0 126 78 191 162 32 43
69 88 81 101 13 12 48 56 78 97 30 41 81 110 113 153 60 82 86 132 86 167 0
23 -2 23 -53 5z"/>
<path d="M13662 20612 c-11 -15 -51 -45 -88 -67 -219 -127 -356 -280 -342
-378 2 -17 11 -23 35 -25 47 -5 97 23 144 79 37 44 147 147 236 219 42 34 53
60 60 135 5 55 3 65 -10 65 -9 0 -25 -12 -35 -28z"/>
<path d="M16343 20030 c-84 -48 -183 -205 -157 -248 6 -9 23 -21 37 -26 24 -9
33 -2 120 85 103 104 117 124 117 166 0 60 -39 68 -117 23z"/>
<path d="M16703 20025 c-23 -7 -64 -29 -91 -49 -50 -36 -122 -110 -122 -124 0
-13 51 -62 65 -62 22 0 151 116 184 167 48 72 37 91 -36 68z"/>
<path d="M20328 18723 c-95 -100 -234 -317 -279 -438 -12 -33 -45 -94 -73
-135 -50 -72 -110 -215 -108 -254 1 -24 51 -76 72 -76 27 0 53 37 145 210 48
91 100 183 115 205 15 22 47 78 70 125 23 47 69 123 101 170 85 123 106 218
55 252 -21 15 -33 7 -98 -59z"/>
<path d="M20931 18699 c-88 -39 -139 -89 -234 -228 -51 -74 -124 -171 -164
-216 -75 -86 -205 -300 -224 -370 -14 -49 -2 -89 27 -93 24 -3 129 102 192
195 47 67 97 132 203 264 42 52 88 115 103 141 16 27 48 70 72 97 99 110 147
231 92 231 -13 0 -43 -9 -67 -21z"/>
<path d="M21207 18377 c-82 -46 -194 -152 -252 -237 -55 -83 -108 -205 -100
-230 6 -19 74 -70 93 -70 6 0 21 19 33 43 12 23 34 56 49 72 16 17 48 65 72
107 24 42 78 117 120 166 82 95 100 127 91 161 -8 30 -38 26 -106 -12z"/>
<path d="M21515 18289 c-30 -28 -66 -71 -80 -95 -30 -51 -224 -332 -266 -385
-16 -20 -29 -42 -29 -47 0 -15 41 -42 62 -42 29 0 83 55 165 173 130 183 143
204 189 303 24 51 53 98 64 104 28 15 14 40 -22 40 -21 0 -43 -13 -83 -51z"/>
<path d="M21708 18162 c-51 -40 -109 -109 -177 -210 -56 -83 -77 -134 -86
-204 -9 -78 11 -78 68 2 26 37 59 68 87 84 50 28 193 170 232 231 41 64 43 90
9 114 -43 31 -79 26 -133 -17z"/>
<path d="M16413 17900 c-25 -10 -111 -116 -147 -181 -14 -25 -39 -100 -56
-166 -29 -115 -30 -124 -20 -219 17 -160 28 -222 50 -263 22 -45 36 -56 45
-40 20 32 37 141 41 274 4 115 11 169 29 230 12 44 25 97 28 119 8 50 28 72
89 92 61 20 119 14 185 -20 90 -46 128 -82 225 -218 89 -125 99 -144 132 -249
35 -111 35 -116 26 -204 -5 -49 -10 -93 -10 -97 0 -19 -67 -80 -105 -97 -51
-23 -67 -48 -63 -99 4 -51 23 -52 121 -4 89 44 124 74 156 138 18 34 20 46 11
70 -8 20 -8 41 0 76 13 53 10 83 -27 241 -22 97 -29 113 -70 160 -24 28 -70
94 -100 144 -83 139 -156 201 -313 269 -125 53 -178 64 -227 44z"/>
<path d="M23785 10634 c-49 -7 -146 -15 -215 -18 -72 -3 -161 -15 -210 -26
-47 -12 -128 -29 -180 -40 -52 -10 -115 -25 -140 -34 -139 -46 -275 -97 -296
-111 -14 -9 -35 -39 -48 -68 -19 -43 -33 -59 -80 -87 -31 -19 -56 -40 -56 -48
0 -22 39 -71 69 -86 37 -20 177 -48 231 -47 25 0 128 -6 230 -15 109 -9 364
-17 620 -20 669 -8 706 -8 850 5 217 19 203 19 210 -9 8 -33 29 -36 71 -7 34
23 34 23 34 102 l0 79 -45 8 c-25 5 -76 4 -115 -1 -38 -5 -94 -9 -123 -9 -29
-1 -68 -5 -87 -11 -23 -6 -63 -5 -127 5 -61 10 -172 15 -323 15 -638 -1 -1350
10 -1360 20 -7 7 -1 18 18 35 22 18 40 24 78 24 51 0 254 44 273 59 24 19 213
72 275 78 36 3 101 14 143 24 42 11 103 19 135 18 32 0 157 3 278 8 121 5 230
6 242 1 12 -4 97 -10 190 -13 191 -8 352 -39 503 -99 47 -19 103 -37 124 -41
22 -4 68 -18 102 -32 70 -28 93 -23 118 25 11 22 12 38 2 87 -16 84 -19 88
-76 80 -33 -5 -57 -2 -76 8 -99 50 -305 99 -413 98 -43 -1 -129 10 -207 26
-117 23 -139 25 -172 14 -32 -11 -44 -10 -74 2 -45 19 -237 19 -373 1z"/>
</g>
</svg>
