<?xml version="1.0" standalone="no"?>
<!DOCTYPE svg PUBLIC "-//W3C//DTD SVG 20010904//EN"
 "http://www.w3.org/TR/2001/REC-SVG-20010904/DTD/svg10.dtd">
<svg version="1.0" xmlns="http://www.w3.org/2000/svg"
 width="1024.000000pt" height="1024.000000pt" viewBox="0 0 1024.000000 1024.000000"
 preserveAspectRatio="xMidYMid meet">
<metadata>
Created by potrace 1.14, written by Peter Selinger 2001-2017
</metadata>
<g transform="translate(0.000000,1024.000000) scale(0.100000,-0.100000)"
fill="#000000" stroke="none">
<path d="M3473 9913 c9 -2 25 -2 35 0 9 3 1 5 -18 5 -19 0 -27 -2 -17 -5z"/>
<path d="M3700 8895 c19 -19 36 -35 39 -35 3 0 -10 16 -29 35 -19 19 -36 35
-39 35 -3 0 10 -16 29 -35z"/>
<path d="M3725 8689 c-4 -6 -5 -12 -2 -15 2 -3 7 2 10 11 7 17 1 20 -8 4z"/>
<path d="M3821 8324 c0 -11 3 -14 6 -6 3 7 2 16 -1 19 -3 4 -6 -2 -5 -13z"/>
<path d="M3871 8144 c0 -11 3 -14 6 -6 3 7 2 16 -1 19 -3 4 -6 -2 -5 -13z"/>
<path d="M7355 7900 c10 -11 23 -20 29 -20 26 0 86 -55 106 -97 12 -25 31 -62
44 -82 54 -86 184 -462 201 -583 16 -111 14 -118 -22 -95 -6 4 -14 4 -17 -1
-4 -8 -2 -22 24 -119 5 -21 10 -63 10 -94 0 -50 -3 -57 -22 -63 -19 -5 -20 -8
-8 -15 8 -5 18 -7 23 -4 5 3 7 -3 5 -13 -3 -18 -10 -20 -66 -23 -13 -1 -21 -5
-18 -9 3 -5 -1 -9 -9 -9 -8 0 -12 4 -9 9 8 13 -10 9 -25 -4 -10 -11 -12 -10
-9 2 2 8 -4 14 -12 15 -8 0 -15 5 -16 10 0 6 -4 18 -8 27 -4 9 -9 25 -10 35
-2 10 -9 18 -17 18 -10 0 -13 -11 -12 -35 5 -104 11 -177 16 -190 14 -41 14
-58 1 -53 -10 4 -12 0 -8 -11 4 -10 12 -15 18 -13 7 3 13 -7 14 -25 2 -18 -2
-27 -8 -23 -6 3 -7 11 -4 17 4 7 2 8 -5 4 -6 -4 -9 -12 -6 -17 4 -5 -1 -9 -9
-9 -9 0 -16 8 -16 19 0 11 -4 22 -10 26 -6 4 -6 15 1 32 8 23 8 24 -6 13 -12
-10 -15 -10 -15 3 0 10 -7 15 -20 12 -11 -2 -19 -1 -19 3 3 20 -2 32 -11 27
-5 -3 -7 0 -4 8 3 8 -2 21 -10 30 -9 9 -16 21 -16 27 0 6 -11 26 -23 43 -13
18 -30 48 -37 67 -7 19 -17 39 -22 45 -4 5 -8 17 -8 26 0 23 -27 32 -35 12
-10 -27 -20 -6 -70 149 -27 81 -50 146 -53 144 -2 -2 17 -69 42 -148 74 -240
80 -287 80 -650 1 -276 -5 -366 -21 -321 -2 7 -11 9 -19 6 -19 -7 -57 33 -60
61 -1 12 -5 63 -8 115 -3 52 -8 96 -10 98 -5 5 -19 -137 -15 -157 1 -8 -3 -28
-10 -44 -6 -16 -9 -42 -6 -58 10 -44 -7 -33 -50 35 -82 128 -134 232 -150 298
-10 38 -21 67 -25 64 -13 -8 -30 53 -30 105 0 26 11 90 24 141 32 126 36 164
40 379 2 102 2 158 0 125 -2 -33 -8 -121 -15 -195 -10 -126 -16 -152 -59 -255
-10 -23 -9 -36 -14 350 -3 254 -13 354 -48 465 -12 40 -35 70 -54 70 -28 0
-140 76 -217 146 -108 100 -117 99 -68 -10 30 -67 99 -133 168 -162 38 -16 87
-19 78 -4 -10 17 29 11 51 -8 27 -22 42 -68 49 -150 3 -37 8 -93 11 -124 6
-71 -12 -79 -22 -10 -3 26 -11 54 -16 62 -5 9 -6 -41 -1 -130 4 -80 7 -186 5
-236 -2 -61 2 -112 13 -154 23 -87 9 -136 -26 -94 -12 15 -14 14 -21 -7 -6
-20 -7 -19 -5 8 2 18 1 30 -3 28 -3 -2 -12 5 -19 17 -9 15 -10 18 0 13 15 -10
3 12 -23 41 -11 12 -20 38 -21 58 -1 20 -5 36 -9 36 -4 0 -11 19 -16 43 -15
66 -14 7 3 -126 8 -65 28 -169 44 -230 31 -116 104 -321 121 -342 5 -6 21 -45
34 -86 22 -66 23 -76 9 -91 -31 -35 -52 -29 -125 38 -73 67 -108 81 -108 42 0
-13 16 -97 35 -188 34 -159 45 -283 26 -294 -12 -8 -34 55 -76 219 -20 77 -59
226 -86 330 -79 303 -88 402 -90 920 0 299 -5 466 -13 520 l-13 80 -6 -45 c-4
-25 -11 -107 -17 -183 -5 -76 -12 -143 -16 -149 -11 -18 -16 -98 -24 -423 -7
-313 -13 -365 -41 -415 -7 -14 -12 -29 -11 -34 2 -5 -3 -4 -12 3 -10 8 -16 9
-21 1 -3 -5 -1 -10 4 -10 6 0 11 -5 11 -11 0 -6 -43 32 -95 85 -122 121 -235
199 -235 162 0 -9 6 -16 13 -16 18 0 128 -90 122 -100 -3 -5 0 -12 6 -16 8 -5
9 -3 4 6 -5 8 10 -1 33 -20 49 -39 49 -50 1 -21 -36 22 -64 28 -54 11 8 -13
-18 -8 -27 5 -5 6 -8 6 -8 -2 0 -6 -14 -14 -30 -18 -17 -4 -37 -13 -45 -22 -8
-8 -15 -10 -15 -4 0 6 -5 11 -11 11 -16 0 -4 -411 15 -511 53 -283 212 -602
407 -816 41 -45 51 -65 22 -42 -10 8 -76 68 -146 134 l-128 120 -78 155 c-43
85 -89 189 -101 230 -12 41 -31 98 -41 125 l-18 50 0 -85 c-1 -161 35 -438 79
-599 5 -20 28 -67 50 -103 22 -37 40 -70 40 -73 0 -15 -24 11 -63 70 l-42 62
-2 -41 c-1 -22 -18 -93 -38 -156 -67 -206 -123 -299 -278 -457 -60 -62 -107
-113 -103 -113 4 0 37 24 74 54 77 61 187 175 239 247 19 28 38 47 41 44 8 -8
-27 -243 -45 -300 -16 -53 -100 -226 -201 -415 -83 -157 -112 -247 -112 -348
l0 -80 -47 -47 c-41 -39 -218 -155 -238 -155 -16 0 14 25 103 85 119 79 145
101 137 115 -20 32 -131 59 -325 79 -41 5 -126 23 -188 41 -62 17 -116 30
-118 27 -3 -3 27 -28 68 -55 80 -54 172 -146 165 -165 -2 -6 -18 -20 -35 -30
-28 -16 -34 -17 -66 -3 -20 8 -57 29 -82 47 -26 18 -44 27 -40 21 4 -7 1 -12
-9 -12 -9 0 -30 -8 -48 -17 -44 -23 -46 -24 -186 -37 -120 -12 -123 -11 -131
9 -9 23 -74 85 -90 85 -6 0 -8 6 -4 12 4 7 4 10 -1 6 -4 -4 -15 -2 -23 5 -13
9 -14 9 -8 0 5 -9 2 -11 -8 -7 -9 3 -13 11 -9 18 4 6 0 5 -9 -2 -14 -11 -17
-10 -23 7 -6 21 -25 29 -25 11 0 -5 5 -10 12 -10 6 0 8 -3 5 -6 -10 -10 -37
16 -37 35 0 9 -13 39 -28 67 -15 28 -44 82 -65 121 -43 79 -79 117 -120 127
-26 6 -28 5 -25 -20 l3 -28 -74 2 c-41 1 -78 5 -83 10 -5 5 -11 39 -15 76 -6
68 -6 68 -21 40 -20 -39 -19 -39 -36 -25 -11 10 -17 2 -31 -43 -11 -35 -24
-58 -36 -61 -10 -3 -62 10 -116 31 -54 20 -150 53 -213 74 -63 21 -132 45
-152 54 -49 21 -78 21 -78 -1 0 -10 -4 -24 -9 -32 -7 -11 -13 -6 -24 21 -22
53 -33 53 -48 1 l-13 -46 -11 34 c-7 19 -20 89 -31 157 -14 94 -22 122 -34
123 -11 0 -11 2 -2 6 10 4 9 9 -4 24 -9 10 -12 19 -6 19 7 0 5 11 -5 28 -18
32 -12 62 13 62 9 0 52 -26 96 -57 224 -161 274 -194 291 -189 9 2 17 -1 17
-7 0 -6 3 -7 6 -4 4 3 15 2 25 -4 11 -5 19 -8 19 -5 0 5 -62 43 -235 146 -49
30 -131 85 -181 123 -75 56 -96 79 -123 129 -30 57 -31 63 -22 117 15 83 68
423 81 521 10 77 62 318 76 355 4 8 12 15 20 15 8 0 14 7 14 15 0 8 5 15 11
15 5 0 7 5 4 10 -4 6 -11 7 -17 4 -7 -5 -9 10 -4 48 7 54 7 55 -31 89 -138
125 -424 234 -633 241 l-105 3 0 -27 c-1 -35 -30 -66 -61 -64 -13 0 -24 5 -24
10 0 5 -2 7 -5 4 -3 -3 4 -26 16 -52 23 -45 23 -46 5 -103 -26 -83 -28 -92
-11 -56 9 20 20 30 29 27 14 -5 56 40 56 61 0 15 139 145 155 145 25 0 131
-42 194 -76 125 -69 311 -233 311 -275 0 -39 -44 -182 -85 -274 -25 -55 -48
-116 -51 -135 -11 -58 -60 -151 -114 -218 -27 -34 -50 -65 -50 -68 0 -3 -11
-20 -25 -38 -14 -18 -25 -38 -25 -44 0 -7 -5 -12 -10 -12 -6 0 -15 -10 -20
-22 -6 -16 -9 -18 -9 -7 -1 19 -42 28 -81 19 -36 -9 -53 16 -32 48 l16 25 -31
-17 c-30 -15 -58 -6 -32 10 8 5 9 3 4 -6 -6 -9 -4 -11 4 -6 7 5 9 11 6 15 -6
6 -10 7 -36 10 -5 0 -7 5 -4 11 4 6 -1 7 -11 3 -12 -4 -15 -3 -10 5 4 7 2 12
-3 12 -6 0 -11 -4 -11 -10 0 -5 -9 -10 -20 -10 -11 0 -20 -5 -20 -11 0 -6 -9
-9 -19 -6 -10 2 -25 1 -32 -4 -10 -6 -11 -9 -2 -9 7 0 12 -11 11 -24 -1 -14
-6 -22 -10 -20 -9 6 -18 -12 -22 -43 -3 -21 -65 -31 -93 -14 -10 6 -12 11 -5
11 9 0 9 8 -2 35 -14 32 -13 34 6 40 20 7 20 7 -1 22 -12 8 -25 12 -30 9 -5
-4 -7 2 -5 12 4 15 -2 17 -48 16 -79 -1 -88 -3 -88 -17 0 -16 -49 -65 -51 -51
-1 5 -1 17 0 27 7 62 -36 -58 -110 -308 -120 -409 -119 -424 21 -531 41 -31
118 -94 170 -138 135 -116 143 -122 477 -347 275 -186 403 -269 581 -380 l62
-38 0 -50 c0 -51 35 -152 104 -303 20 -44 41 -113 50 -165 31 -177 57 -231
141 -295 111 -84 237 -113 489 -111 157 2 204 -1 273 -18 46 -10 94 -19 106
-19 12 0 51 -14 87 -32 131 -64 104 -74 218 76 56 72 135 169 177 215 42 47
75 93 75 105 2 81 92 200 257 343 200 173 519 420 529 411 2 -3 -2 -24 -10
-46 -14 -40 -14 -42 4 -42 11 0 20 -4 20 -9 0 -14 -28 -33 -40 -26 -5 3 -10 0
-10 -7 0 -7 -40 -51 -89 -98 -120 -115 -144 -163 -143 -285 0 -105 15 -170 42
-185 10 -5 38 -10 62 -10 38 0 53 7 103 48 81 65 159 196 173 291 11 74 2 156
-19 175 -17 16 -92 29 -84 15 4 -5 17 -9 31 -9 13 0 34 -10 45 -21 19 -19 21
-30 17 -101 -4 -65 -9 -83 -27 -101 l-22 -22 2 42 c4 49 -11 70 -57 79 -24 4
-42 1 -67 -15 -19 -12 -42 -21 -52 -21 -27 0 -84 -39 -100 -68 -9 -17 -14 -21
-15 -11 0 9 11 31 25 50 14 19 33 52 44 75 27 57 103 122 138 118 25 -3 26 -3
5 4 -24 7 -24 7 -4 25 25 23 96 34 107 17 10 -17 36 45 90 213 24 78 52 152
60 165 9 12 12 22 5 22 -17 0 -49 -60 -71 -135 -45 -154 -84 -245 -105 -245
-15 0 -27 25 -37 79 -7 31 -6 33 17 27 37 -9 41 11 6 29 -43 22 -43 41 10 283
23 106 23 112 11 112 -4 0 -11 -19 -14 -42 -12 -84 -36 -145 -59 -151 -30 -8
-38 -1 -38 36 0 24 12 46 46 85 45 52 49 75 4 27 -32 -34 -37 -24 -10 22 52
86 57 89 171 83 l103 -5 18 -84 c10 -47 16 -87 13 -89 -3 -3 0 -11 6 -19 8 -9
36 -13 90 -13 l78 0 58 -51 c32 -28 85 -69 118 -92 33 -22 85 -61 115 -87 78
-67 130 -99 170 -105 l35 -6 -37 14 c-58 22 -83 42 -139 109 -50 60 -109 170
-109 203 0 13 30 15 219 15 163 0 221 -3 228 -12 6 -7 16 -31 23 -53 7 -22 30
-75 51 -119 22 -43 39 -86 39 -96 0 -26 -42 -73 -97 -109 -36 -24 -57 -31 -97
-31 -40 0 -47 -2 -37 -12 7 -8 39 -13 84 -13 64 1 80 5 149 42 l77 40 53 -40
c56 -42 215 -120 267 -132 40 -9 61 -30 61 -61 0 -27 -14 -35 -100 -54 -64
-15 -705 -228 -765 -254 -102 -46 -394 -190 -391 -193 2 -2 79 33 172 78 93
44 201 91 239 104 113 37 215 74 292 106 97 39 115 37 61 -7 -58 -49 -257
-251 -339 -344 -114 -130 -218 -280 -350 -499 -56 -95 -92 -142 -148 -195
-345 -328 -497 -500 -571 -643 l-35 -68 1 -165 c0 -144 3 -178 27 -272 22 -89
25 -111 15 -139 -10 -29 -125 -225 -150 -256 -14 -17 -64 5 -147 65 -126 92
-132 96 -141 82 -10 -16 -31 -4 -137 82 -76 62 -79 68 -64 133 5 21 0 46 -16
83 -13 30 -32 84 -43 120 -22 78 -27 53 -5 -28 8 -30 12 -56 10 -58 -2 -2 -15
9 -29 24 -32 36 -32 26 -1 -61 13 -38 25 -86 25 -106 0 -20 7 -55 14 -78 8
-22 18 -60 21 -83 4 -23 12 -60 20 -82 7 -23 16 -66 20 -97 3 -30 13 -68 21
-84 8 -16 19 -45 24 -64 5 -20 15 -57 21 -83 l12 -48 1297 0 1296 0 12 43 c7
23 19 65 27 92 27 92 74 506 75 650 0 36 22 158 56 305 30 135 62 286 70 335
8 50 22 112 31 139 31 98 -1 357 -82 656 -40 149 -56 188 -159 395 -63 127
-128 270 -145 318 -32 90 -42 187 -20 187 6 0 49 -23 95 -51 78 -48 90 -52
172 -60 48 -5 102 -6 121 -2 32 5 28 7 -50 30 -189 54 -382 215 -443 369 -30
74 -56 212 -56 293 1 76 16 47 25 -49 8 -87 53 -240 65 -220 6 10 201 67 300
87 24 5 24 4 -9 -30 -41 -43 -104 -72 -194 -87 -55 -10 -70 -10 -84 1 -14 12
-15 11 -8 -11 4 -14 11 -29 15 -34 17 -17 182 -19 253 -2 38 9 73 14 78 10 5
-3 7 -17 4 -32 -7 -41 12 -98 47 -137 17 -20 33 -33 37 -30 3 3 4 37 2 76 -3
81 9 122 59 204 20 33 54 93 75 133 34 66 81 120 93 107 3 -2 -5 -28 -18 -57
-19 -44 -22 -65 -18 -137 5 -93 25 -153 39 -116 4 11 12 39 18 61 21 78 122
187 154 167 5 -3 5 -22 2 -43 -14 -85 49 -153 220 -235 118 -57 182 -78 190
-65 3 5 -15 23 -39 40 -59 40 -92 85 -105 140 -9 40 -8 51 17 100 35 71 92
115 169 130 132 27 303 118 389 208 86 89 100 158 69 337 -9 48 -13 90 -10 93
2 3 22 -6 42 -20 21 -14 49 -31 62 -38 23 -12 22 -9 -8 29 -18 23 -41 46 -52
51 -20 11 -48 59 -44 75 2 6 6 23 10 39 l6 28 31 -48 c79 -126 174 -231 192
-213 3 3 -20 34 -50 69 -54 64 -134 189 -134 209 0 6 7 11 16 11 8 0 12 4 9
10 -3 6 -15 10 -26 10 -24 0 -26 7 -89 217 -27 89 -55 175 -63 190 -8 15 -28
67 -45 114 -17 47 -45 107 -63 133 -36 54 -58 108 -59 145 0 14 -14 91 -30
173 -51 249 -150 529 -245 698 -23 41 -52 107 -65 145 -30 92 -125 296 -192
416 -30 52 -67 126 -82 164 -15 39 -58 126 -96 195 -37 69 -85 159 -105 200
-21 41 -59 104 -85 140 -26 36 -60 85 -75 110 -42 67 -150 175 -236 235 -92
66 -221 135 -194 105z m-118 -2273 c13 -11 73 -47 135 -79 62 -33 102 -56 88
-53 -14 4 -41 10 -61 15 -43 11 -155 58 -184 77 -36 24 -135 126 -135 140 0 7
-4 13 -10 13 -5 0 -10 5 -10 10 0 10 125 -78 177 -123z m323 -147 c20 -6 21
-8 5 -8 -11 0 -29 3 -40 8 -25 11 1 11 35 0z m-169 -327 c21 -43 22 -51 11
-112 -17 -101 -59 -238 -97 -317 -29 -59 -43 -77 -84 -104 -28 -17 -55 -29
-60 -26 -6 4 4 39 24 87 19 44 49 126 66 182 28 90 33 99 45 82 13 -17 14 -17
20 0 4 10 3 30 -3 44 -10 28 1 80 20 92 5 4 7 17 4 28 -6 25 10 91 23 91 4 0
18 -21 31 -47z m-1450 -163 c-9 -24 -10 -24 -10 7 -1 17 2 40 7 50 6 15 7 14
10 -7 2 -14 -2 -37 -7 -50z m-3881 21 c0 -4 -7 -8 -15 -8 -8 0 -15 6 -15 13 0
8 6 11 15 8 8 -4 15 -9 15 -13z m734 -120 c-22 -75 -40 -115 -62 -134 -35 -32
-36 0 -1 66 31 61 67 117 74 117 2 0 -3 -22 -11 -49z m-574 -21 c0 -5 -2 -10
-4 -10 -3 0 -8 5 -11 10 -3 6 -1 10 4 10 6 0 11 -4 11 -10z m-80 -20 c0 -5 -5
-10 -11 -10 -5 0 -7 5 -4 10 3 6 8 10 11 10 2 0 4 -4 4 -10z m37 -6 c-3 -3
-12 -4 -19 -1 -8 3 -5 6 6 6 11 1 17 -2 13 -5z m4614 -66 c52 -236 -39 -472
-245 -636 -70 -56 -120 -80 -166 -82 -25 -1 -25 -1 -5 -16 54 -42 227 16 335
113 26 23 53 43 59 43 20 0 -25 -97 -100 -218 -118 -188 -182 -246 -295 -265
-41 -7 -67 -8 -73 -2 -6 6 -15 42 -21 82 -13 80 1 276 21 316 7 12 44 58 83
103 39 44 92 106 118 136 41 48 59 61 146 97 55 23 108 49 119 56 17 14 17 14
-2 14 -11 1 -40 -9 -65 -20 -59 -28 -120 -49 -120 -43 0 2 22 37 49 77 72 106
99 162 117 244 9 40 19 71 24 68 4 -2 13 -33 21 -67z m-335 -214 c-36 -71 -65
-127 -65 -124 -3 26 115 267 126 257 2 -3 -25 -63 -61 -133z m-3546 -175 l0
-121 -32 6 c-18 4 -39 13 -48 21 -13 13 -12 18 2 43 8 15 23 54 33 87 15 54
30 85 41 85 2 0 4 -55 4 -121z m5645 -129 c-19 -53 -19 -59 0 -34 12 16 14 16
9 2 -9 -26 -92 -83 -148 -102 -27 -9 -51 -14 -53 -13 -1 2 27 27 62 57 36 29
82 72 102 97 20 24 37 42 40 40 2 -2 -4 -23 -12 -47z m-2667 -82 l-3 -43 -27
47 c-16 26 -28 49 -28 53 0 3 12 17 28 32 l27 25 3 -36 c2 -19 2 -55 0 -78z
m3090 -5 c-3 -61 -12 -99 -42 -175 -53 -131 -103 -182 -230 -232 -38 -15 -71
-25 -74 -22 -3 3 45 57 105 120 96 99 117 127 161 215 28 55 54 117 58 136 12
65 26 38 22 -42z m-3184 5 c-9 -18 -23 -41 -32 -51 -20 -23 -11 -30 22 -16 17
8 30 9 36 3 15 -15 70 -198 62 -205 -4 -3 -49 -3 -101 0 l-94 6 -44 -49 c-24
-27 -46 -46 -50 -42 -20 19 73 219 148 319 54 71 81 89 53 35z m124 -148 c0
-8 -6 1 -13 20 -7 19 -13 42 -13 50 0 8 6 -1 13 -20 7 -19 13 -42 13 -50z
m-328 -106 c-11 -38 -26 -105 -35 -149 l-15 -80 6 80 c7 89 7 95 18 145 8 36
34 85 42 78 2 -2 -5 -35 -16 -74z m373 -11 c3 -16 29 -67 56 -116 28 -48 51
-89 51 -92 0 -3 -16 -5 -35 -5 -30 0 -35 4 -41 28 -3 15 -14 56 -24 92 -27 97
-34 133 -22 126 5 -3 12 -18 15 -33z m1586 -56 c1 -50 -15 -91 -45 -119 -22
-19 -124 -61 -131 -54 -3 3 17 34 43 70 27 36 60 87 74 113 38 73 43 78 51 56
4 -10 8 -40 8 -66z m-809 -112 c5 -21 8 -39 7 -40 -1 0 -58 2 -126 5 l-125 5
80 52 c43 28 93 66 109 83 l30 31 8 -48 c4 -26 12 -66 17 -88z m-1729 41 c45
-19 96 -83 79 -99 -9 -9 -15 -7 -26 7 -8 11 -14 26 -14 33 0 7 -6 13 -12 13
-16 1 -86 60 -71 60 6 0 26 -6 44 -14z m504 -175 c-9 -9 -135 -52 -135 -46 0
10 59 39 77 37 12 -1 25 3 28 8 3 6 14 10 23 10 10 0 12 -3 7 -9z m1355 -276
c0 -2 -10 -9 -22 -15 -22 -11 -22 -10 -4 4 21 17 26 19 26 11z m157 -674 c7
-1 11 -12 10 -25 -2 -25 115 -196 173 -251 36 -35 56 -95 40 -125 -6 -11 -15
-20 -20 -20 -5 0 -14 -9 -20 -19 -7 -15 -5 -25 9 -42 26 -33 17 -53 -53 -109
-33 -28 -92 -77 -131 -111 -38 -33 -153 -124 -255 -202 -364 -277 -387 -306
-430 -531 -11 -54 -24 -104 -30 -110 -5 -7 -12 -30 -16 -51 -5 -32 -34 -82
-34 -59 0 14 -42 -31 -52 -56 -5 -13 -28 -54 -51 -91 -41 -65 -43 -67 -92 -73
-27 -3 -126 1 -220 9 -93 8 -176 15 -183 15 -31 0 -89 196 -69 235 21 40 73
98 115 127 24 17 41 36 39 43 -3 7 3 26 14 44 10 17 16 31 14 31 -10 0 17 43
62 102 23 31 43 60 43 64 0 4 8 13 18 21 9 8 12 12 5 9 -15 -8 -22 14 -12 40
4 12 6 24 3 27 -6 6 -29 -14 -194 -170 -149 -142 -238 -218 -246 -210 -10 10
207 277 331 406 38 40 135 129 215 196 149 126 201 175 184 175 -6 0 -15 -5
-22 -12 -23 -23 -20 -2 6 39 15 22 41 49 57 59 17 9 57 43 90 74 82 77 100 88
175 98 l65 10 -52 1 c-29 0 -53 5 -53 11 0 12 -121 -60 -127 -77 -3 -7 -10
-13 -16 -13 -5 0 -25 -17 -44 -37 -40 -44 -39 -40 12 47 65 110 261 351 336
415 72 60 153 81 195 51 13 -10 23 -11 31 -4 9 7 13 7 13 -1 0 -6 7 -11 16
-11 8 0 12 4 9 10 -3 6 1 7 10 4 13 -5 11 -10 -11 -31 -14 -13 -24 -26 -22
-28 2 -3 18 9 36 25 18 16 45 37 61 46 16 9 27 23 24 30 -3 8 2 11 14 9 10 -2
23 -4 30 -4z m-2667 -271 c0 -5 -9 -10 -21 -10 -11 0 -17 5 -14 10 3 6 13 10
21 10 8 0 14 -4 14 -10z"/>
<path d="M6092 7564 c-18 -35 -32 -71 -32 -79 0 -9 -28 -41 -61 -73 -61 -56
-78 -80 -219 -301 -144 -225 -313 -594 -370 -809 -12 -46 -27 -81 -32 -80 -13
5 -13 3 6 93 28 129 75 291 124 425 52 142 194 430 266 538 90 136 203 240
247 229 12 -3 19 0 19 9 0 18 -19 18 -61 0 -100 -42 -332 -373 -442 -632 -99
-232 -138 -367 -188 -659 -44 -257 -58 -460 -41 -585 8 -58 9 -51 9 70 0 95 7
168 22 244 23 121 26 165 6 96 -11 -39 -13 -41 -14 -15 0 49 23 148 37 153 9
3 11 -4 7 -25 -5 -25 -4 -26 4 -5 12 26 11 26 57 5 27 -13 44 -32 66 -76 28
-56 28 -60 11 -72 -16 -12 -14 -14 20 -20 22 -4 60 -25 90 -50 28 -23 84 -61
123 -83 l71 -41 7 -98 c9 -134 22 -213 53 -312 l25 -85 -26 -99 c-15 -55 -25
-102 -21 -105 3 -3 5 -3 5 0 0 4 12 50 26 103 l26 98 -31 121 c-49 198 -60
465 -26 661 7 44 15 172 18 285 l4 205 -13 -110 c-7 -60 -20 -198 -29 -305
-10 -107 -19 -197 -20 -198 -2 -2 -28 9 -57 25 -30 16 -106 79 -176 147 l-123
120 7 -41 6 -40 -31 5 c-17 2 -34 8 -37 13 -5 9 35 150 69 239 34 90 159 348
221 455 63 109 141 218 202 280 48 48 52 38 30 -78 -8 -45 -18 -113 -21 -152
-13 -160 -15 -166 -38 -160 -19 5 -20 5 -4 -5 14 -9 17 -27 18 -103 l2 -92 8
65 c4 36 10 92 14 125 17 164 78 430 118 513 21 42 39 98 43 130 3 32 20 88
36 125 16 38 28 71 26 73 -2 2 -18 -26 -36 -62z m-399 -1581 c101 -53 128 -75
114 -89 -3 -3 -52 22 -109 57 -173 104 -175 121 -5 32z"/>
<path d="M7120 7480 c6 -11 13 -20 16 -20 2 0 0 9 -6 20 -6 11 -13 20 -16 20
-2 0 0 -9 6 -20z"/>
<path d="M5604 7312 c-45 -42 -111 -110 -148 -150 -54 -58 -65 -76 -56 -87 6
-7 22 -11 36 -9 30 6 31 -7 1 -43 -50 -60 -161 -220 -173 -249 -20 -49 -36
-239 -28 -346 3 -54 10 -98 14 -98 20 0 78 82 97 135 149 427 189 519 306 715
44 74 87 144 96 155 16 20 15 20 -5 3 -11 -10 -32 -18 -45 -18 -14 0 -30 -5
-37 -12 -8 -8 -15 -9 -22 -2 -6 6 1 22 21 47 17 20 29 37 27 37 -2 -1 -39 -36
-84 -78z m-48 -78 c-9 -8 -13 -20 -10 -26 4 -7 2 -8 -4 -4 -14 8 2 46 19 46 6
0 3 -7 -5 -16z m96 -36 c-6 -6 -15 -8 -19 -4 -4 4 -1 11 7 16 19 12 27 3 12
-12z m-28 -43 c-4 -8 -10 -12 -15 -9 -5 3 -9 0 -9 -7 0 -7 -3 -9 -6 -6 -8 7
14 37 27 37 5 0 6 -7 3 -15z m-139 -74 c-3 -6 -11 -8 -17 -5 -6 4 -5 9 3 15
16 10 23 4 14 -10z"/>
<path d="M5296 7256 c-9 -15 -19 -41 -22 -59 -5 -29 -4 -30 9 -15 8 10 17 15
20 11 4 -3 7 -4 7 -2 0 2 4 18 9 35 12 44 -1 62 -23 30z"/>
<path d="M5208 7253 c-22 -6 -23 -17 -3 -33 21 -17 19 -64 -5 -110 -11 -22
-18 -40 -15 -40 10 0 42 76 49 115 4 22 9 48 12 58 5 17 -3 19 -38 10z"/>
<path d="M5140 6976 c-6 -8 -33 -25 -58 -37 -26 -12 -59 -33 -74 -45 -15 -12
-82 -50 -149 -84 -173 -87 -354 -215 -427 -301 -31 -37 -25 -33 40 24 43 37
86 67 95 67 10 0 55 18 101 41 90 44 226 94 217 79 -16 -26 -165 -134 -235
-171 -44 -22 -80 -45 -80 -50 0 -26 241 113 317 184 17 16 36 27 41 23 5 -3
16 2 23 12 13 15 12 16 -3 3 -10 -7 -18 -11 -18 -7 0 12 65 46 85 45 11 0 14
-3 8 -6 -7 -2 -13 -13 -13 -24 0 -11 -7 -22 -15 -25 -8 -4 -15 -10 -15 -16 0
-5 5 -6 10 -3 6 3 10 3 10 0 0 -3 -14 -11 -30 -17 -24 -8 -28 -13 -19 -24 6
-7 7 -19 3 -26 -6 -10 -4 -10 9 1 14 11 18 11 24 -4 7 -20 -1 -51 -44 -170
l-28 -80 -55 -18 c-30 -9 -60 -23 -68 -30 -11 -11 -29 -101 -47 -227 -2 -14
-4 -25 -5 -25 -1 0 -3 -22 -5 -50 -5 -54 -23 -124 -37 -140 -5 -5 -8 -3 -9 5
0 10 -4 7 -9 -5 -8 -17 -9 -17 -7 7 1 15 5 24 9 22 4 -3 8 -1 8 5 0 5 3 17 7
27 5 13 3 16 -10 11 -14 -5 -17 0 -17 36 0 100 65 399 103 472 12 23 32 61 45
84 12 22 18 41 13 41 -6 0 -16 -10 -22 -22 -7 -13 -47 -59 -89 -103 -96 -101
-133 -155 -187 -275 -88 -196 -96 -350 -28 -545 21 -60 56 -145 77 -188 l40
-78 -6 -137 c-10 -220 -9 -273 4 -341 12 -57 19 -70 62 -111 34 -33 48 -54 48
-73 0 -24 2 -26 19 -15 15 9 31 6 85 -18 l67 -29 -6 -35 c-4 -19 -7 -86 -6
-147 1 -81 -2 -113 -10 -113 -7 0 -29 18 -50 39 -39 42 -64 104 -75 183 -4 26
-11 45 -15 42 -18 -11 -8 -78 22 -150 25 -61 41 -83 87 -122 30 -26 80 -70
111 -99 63 -58 95 -73 149 -72 33 0 35 2 18 12 -81 51 -116 90 -156 169 -26
52 -45 108 -51 151 -12 75 -5 137 14 137 7 0 41 -14 77 -31 35 -16 107 -45
160 -64 52 -18 119 -42 148 -54 58 -23 76 -26 67 -11 -3 6 2 10 11 10 28 0 12
8 -87 44 -332 121 -457 170 -560 223 -107 54 -114 68 -105 186 9 115 43 353
66 472 11 55 24 159 30 230 6 72 18 171 26 220 8 50 25 156 38 236 14 81 32
161 41 178 15 30 18 31 53 24 84 -18 298 6 309 35 4 8 1 29 -5 46 -6 17 -15
82 -18 145 l-7 114 -18 -34 c-10 -19 -23 -50 -30 -69 -6 -19 -21 -48 -32 -63
-16 -23 -17 -33 -9 -52 9 -18 8 -25 -4 -29 -9 -3 -13 -10 -10 -15 6 -9 -16
-21 -40 -21 -42 0 56 331 156 531 34 66 35 69 18 69 -7 0 -39 -36 -72 -80 -32
-44 -62 -77 -67 -74 -5 3 -6 -1 -3 -9 3 -8 -1 -17 -9 -20 -17 -6 -17 14 0 34
50 64 121 179 109 179 -7 0 -19 -7 -26 -14z m30 -478 c0 -16 -3 -19 -11 -11
-6 6 -8 16 -5 22 11 17 16 13 16 -11z m-491 -225 c-5 -16 -16 -50 -24 -78 -14
-49 -14 -44 1 40 3 22 4 37 0 34 -13 -12 -36 -156 -50 -308 -15 -161 -12 -240
19 -411 8 -47 15 -98 15 -115 0 -25 -2 -27 -14 -15 -8 8 -28 49 -45 90 -16 41
-46 113 -65 160 -63 151 -48 283 55 495 34 69 88 135 110 135 4 0 3 -12 -2
-27z m-42 -175 c-3 -7 -5 -2 -5 12 0 14 2 19 5 13 2 -7 2 -19 0 -25z m38 -268
c-2 -31 -15 -37 -15 -7 0 15 4 27 8 27 5 0 8 -9 7 -20z m-8 -62 c-3 -8 -6 -5
-6 6 -1 11 2 17 5 13 3 -3 4 -12 1 -19z m538 -1208 c27 -12 33 -19 20 -19 -11
0 -38 8 -60 18 -26 13 -33 19 -20 19 11 0 38 -8 60 -18z"/>
<path d="M7130 6599 c0 -13 5 -31 10 -39 7 -11 8 -5 4 20 -8 43 -14 51 -14 19z"/>
<path d="M4450 6368 c-10 -24 -21 -61 -25 -83 -4 -28 1 -19 18 31 13 39 27 76
31 82 4 7 4 12 1 12 -3 0 -15 -19 -25 -42z"/>
<path d="M4240 6392 c0 -5 14 -28 31 -52 24 -33 33 -39 40 -29 13 21 11 39 -5
33 -7 -3 -25 9 -40 26 -14 17 -26 27 -26 22z"/>
<path d="M4200 6308 c0 -7 9 -40 20 -73 11 -36 25 -127 34 -225 12 -136 22
-189 56 -305 23 -77 57 -192 75 -256 49 -164 76 -299 75 -366 0 -32 -1 -73 0
-92 0 -55 -54 -154 -113 -206 -69 -61 -90 -71 -166 -80 -50 -6 -60 -10 -47
-17 12 -7 43 -6 94 1 99 15 234 84 314 161 84 82 77 106 -11 35 -37 -30 -73
-55 -79 -55 -6 0 0 29 14 68 24 68 31 176 15 247 -3 17 -2 57 2 90 8 54 7 66
-18 120 -15 33 -42 98 -60 145 -18 47 -45 112 -58 145 -17 40 -30 97 -38 170
-6 61 -16 115 -21 122 -10 13 -13 133 -3 163 7 23 -16 102 -52 173 -24 47 -33
57 -33 35z"/>
<path d="M4413 6165 c0 -27 2 -38 4 -22 2 15 2 37 0 50 -2 12 -4 0 -4 -28z"/>
<path d="M5361 6114 c0 -11 3 -14 6 -6 3 7 2 16 -1 19 -3 4 -6 -2 -5 -13z"/>
<path d="M5861 6014 c0 -11 3 -14 6 -6 3 7 2 16 -1 19 -3 4 -6 -2 -5 -13z"/>
<path d="M2031 5202 c-31 -88 -41 -132 -30 -132 5 0 10 5 10 10 2 11 5 25 9
38 1 4 2 11 1 15 -1 5 8 35 20 68 12 33 20 61 18 64 -3 2 -15 -26 -28 -63z"/>
<path d="M8821 5230 c0 -14 6 -38 14 -55 11 -25 14 -27 14 -9 1 12 -6 37 -14
55 -13 31 -14 32 -14 9z"/>
<path d="M5831 5079 c-6 -18 -9 -34 -7 -36 2 -2 9 10 15 28 6 18 9 34 7 36 -2
2 -9 -10 -15 -28z"/>
<path d="M4419 5063 c-13 -16 -12 -17 4 -4 16 13 21 21 13 21 -2 0 -10 -8 -17
-17z"/>
<path d="M2578 4963 c7 -3 16 -2 19 1 4 3 -2 6 -13 5 -11 0 -14 -3 -6 -6z"/>
<path d="M2160 4909 c0 -5 5 -7 10 -4 6 3 10 8 10 11 0 2 -4 4 -10 4 -5 0 -10
-5 -10 -11z"/>
<path d="M5460 4459 c0 -8 34 -26 81 -44 44 -16 83 -33 86 -38 7 -11 -118
-173 -212 -274 -58 -62 -92 -90 -140 -113 -66 -32 -138 -40 -177 -19 -11 6
-22 8 -25 5 -14 -14 72 -36 138 -36 99 0 289 45 309 73 20 28 61 129 55 135
-3 3 -5 1 -5 -4 0 -6 -7 -19 -15 -30 -12 -16 -14 -16 -15 -3 0 9 11 28 25 43
14 15 42 53 64 84 21 31 48 66 60 76 50 45 12 93 -99 126 -104 31 -130 35
-130 19z"/>
<path d="M3666 4243 c-11 -11 -6 -23 9 -23 8 0 15 4 15 9 0 13 -16 22 -24 14z"/>
<path d="M3745 4190 c3 -5 8 -10 11 -10 2 0 4 5 4 10 0 6 -5 10 -11 10 -5 0
-7 -4 -4 -10z"/>
<path d="M4556 4056 c32 -25 73 -56 89 -69 30 -24 88 -57 101 -57 18 0 -31 39
-125 101 -118 78 -154 91 -65 25z"/>
<path d="M5886 3522 c-10 -62 -21 -157 -25 -210 l-6 -97 -34 -3 c-32 -3 -33
-5 -27 -35 4 -18 10 -53 13 -78 5 -46 6 -46 33 -36 l27 10 6 162 c3 90 13 208
22 264 9 56 15 109 13 119 -2 9 -12 -34 -22 -96z m-36 -381 c0 -22 -4 -42 -9
-46 -13 -7 -18 2 -26 48 -7 33 -5 37 14 37 18 0 21 -6 21 -39z"/>
<path d="M5801 3024 c0 -11 3 -14 6 -6 3 7 2 16 -1 19 -3 4 -6 -2 -5 -13z"/>
<path d="M5219 2674 c-52 -58 -128 -149 -169 -203 -371 -483 -389 -508 -383
-530 3 -12 1 -21 -6 -21 -5 0 -8 7 -5 15 13 32 -7 13 -27 -27 -20 -40 -21 -51
-16 -233 3 -104 13 -230 21 -280 9 -49 21 -123 27 -164 10 -69 66 -228 91
-258 6 -8 19 -13 29 -11 14 2 341 311 551 520 80 80 89 107 128 403 11 83 33
236 49 340 16 105 37 246 46 315 l18 125 56 53 56 53 -67 -55 c-73 -60 -99
-71 -166 -70 -51 1 -86 29 -114 92 -10 23 -20 42 -22 42 -2 0 -46 -48 -97
-106z m133 -60 c-6 -77 -22 -111 -87 -185 -36 -40 -65 -80 -65 -89 0 -8 -11
-35 -25 -59 -14 -23 -25 -48 -25 -54 0 -13 80 100 193 273 80 121 84 125 121
128 l38 3 -6 -58 c-34 -281 -81 -547 -103 -582 -8 -13 -30 -70 -48 -127 -42
-129 -54 -147 -118 -178 -46 -24 -53 -25 -73 -11 -39 25 -50 18 -69 -45 -10
-34 -23 -64 -28 -67 -7 -4 -7 1 -2 13 4 10 12 39 17 64 5 25 19 73 30 108 11
35 18 65 15 68 -2 2 -19 -16 -38 -41 -79 -106 -84 -105 -44 7 14 38 25 75 25
81 -1 13 -83 -150 -99 -195 -11 -30 -28 -37 -37 -14 -9 23 14 119 42 175 37
77 28 75 -12 -2 -51 -99 -66 -99 -115 3 -12 25 -24 47 -26 49 -2 3 -17 -11
-33 -29 l-30 -34 0 32 c0 33 20 89 77 215 24 53 33 86 29 103 -5 20 6 41 56
107 106 141 154 191 260 274 107 84 156 114 173 109 6 -2 9 -21 7 -42z m-350
-976 c-8 -8 -9 -4 -5 13 4 13 8 18 11 10 2 -7 -1 -18 -6 -23z"/>
<path d="M4987 705 c9 -61 24 -99 17 -45 -4 25 -10 54 -15 65 -6 13 -6 6 -2
-20z"/>
<path d="M3923 127 c13 -17 31 -50 40 -72 9 -22 16 -32 16 -21 1 24 -48 113
-66 120 -8 3 -4 -8 10 -27z"/>
</g>
</svg>
